<?xml version="1.0" encoding="UTF-8" standalone="no"?>
<!DOCTYPE svg PUBLIC "-//W3C//DTD SVG 1.1//EN"
 "http://www.w3.org/Graphics/SVG/1.1/DTD/svg11.dtd">
<!-- Generated by graphviz version 12.2.1 (20241206.2353)
 -->
<!-- Title: UserStates Pages: 1 -->
<svg width="2313pt" height="797pt"
 viewBox="0.00 0.00 2313.12 797.00" xmlns="http://www.w3.org/2000/svg" xmlns:xlink="http://www.w3.org/1999/xlink">
<g id="graph0" class="graph" transform="scale(1 1) rotate(0) translate(4 793)">
<title>UserStates</title>
<polygon fill="white" stroke="none" points="-4,4 -4,-793 2309.12,-793 2309.12,4 -4,4"/>
<g id="clust1" class="cluster">
<title>cluster_pre_reg</title>
<polygon fill="#e8f4f8" stroke="#2980b9" points="1495,-164.25 1495,-418 1718,-418 1718,-164.25 1495,-164.25"/>
<text text-anchor="middle" x="1606.5" y="-400.7" font-family="Helvetica,sans-Serif" font-size="14.00">Pre&#45;Registration States</text>
</g>
<g id="clust2" class="cluster">
<title>cluster_registration</title>
<polygon fill="#fef9e7" stroke="#f39c12" points="1321,-466.5 1321,-777 1566,-777 1566,-466.5 1321,-466.5"/>
<text text-anchor="middle" x="1443.5" y="-759.7" font-family="Helvetica,sans-Serif" font-size="14.00">Registration Flows</text>
</g>
<g id="clust3" class="cluster">
<title>cluster_registered</title>
<polygon fill="#e8f8f5" stroke="#27ae60" points="18,-315.38 18,-564.5 380,-564.5 380,-315.38 18,-315.38"/>
<text text-anchor="middle" x="199" y="-547.2" font-family="Helvetica,sans-Serif" font-size="14.00">Registered Users</text>
</g>
<g id="clust4" class="cluster">
<title>cluster_auth</title>
<polygon fill="#f4ecf7" stroke="#8e44ad" points="724,-315.38 724,-413.38 1136,-413.38 1136,-315.38 724,-315.38"/>
<text text-anchor="middle" x="930" y="-396.08" font-family="Helvetica,sans-Serif" font-size="14.00">Authentication Methods (additive)</text>
</g>
<g id="clust5" class="cluster">
<title>cluster_vms</title>
<polygon fill="#eaf2f8" stroke="#3498db" points="548,-8 548,-262.25 772,-262.25 772,-8 548,-8"/>
<text text-anchor="middle" x="660" y="-244.95" font-family="Helvetica,sans-Serif" font-size="14.00">VM Ownership</text>
</g>
<g id="clust6" class="cluster">
<title>cluster_shares</title>
<polygon fill="#fdf2e9" stroke="#e67e22" points="1462,-8 1462,-106 1651,-106 1651,-8 1462,-8"/>
<text text-anchor="middle" x="1556.5" y="-88.7" font-family="Helvetica,sans-Serif" font-size="14.00">Share Access</text>
</g>
<g id="clust7" class="cluster">
<title>cluster_restricted</title>
<polygon fill="#fadbd8" stroke="#c0392b" points="347,-164.25 347,-262.25 530,-262.25 530,-164.25 347,-164.25"/>
<text text-anchor="middle" x="438.5" y="-244.95" font-family="Helvetica,sans-Serif" font-size="14.00">Restricted States</text>
</g>
<g id="clust8" class="cluster">
<title>cluster_special</title>
<polygon fill="#ebdef0" stroke="#7d3c98" points="78,-164.25 78,-262.25 185,-262.25 185,-164.25 78,-164.25"/>
<text text-anchor="middle" x="131.5" y="-244.95" font-family="Helvetica,sans-Serif" font-size="14.00">Special Access</text>
</g>
<g id="clust9" class="cluster">
<title>cluster_legend</title>
<polygon fill="#fafafa" stroke="#95a5a6" points="1574,-679 1574,-769.5 1936,-769.5 1936,-679 1574,-679"/>
<text text-anchor="middle" x="1755" y="-756" font-family="Helvetica,sans-Serif" font-size="10.00">Legend</text>
</g>
<!-- anonymous -->
<g id="node1" class="node">
<title>anonymous</title>
<ellipse fill="#bdc3c7" stroke="black" cx="1621" cy="-341.38" rx="51.62" ry="22.63"/>
<text text-anchor="middle" x="1621" y="-342.93" font-family="Helvetica,sans-Serif" font-size="11.00">Anonymous</text>
<text text-anchor="middle" x="1621" y="-330.93" font-family="Helvetica,sans-Serif" font-size="11.00">Visitor</text>
</g>
<!-- pending_share_recipient -->
<g id="node2" class="node">
<title>pending_share_recipient</title>
<g id="a_node2"><a xlink:title="Email has PendingBoxShare but not registered">
<path fill="#f39c12" stroke="black" d="M1579,-208.25C1579,-208.25 1515,-208.25 1515,-208.25 1509,-208.25 1503,-202.25 1503,-196.25 1503,-196.25 1503,-184.25 1503,-184.25 1503,-178.25 1509,-172.25 1515,-172.25 1515,-172.25 1579,-172.25 1579,-172.25 1585,-172.25 1591,-178.25 1591,-184.25 1591,-184.25 1591,-196.25 1591,-196.25 1591,-202.25 1585,-208.25 1579,-208.25"/>
<text text-anchor="middle" x="1547" y="-191.8" font-family="Helvetica,sans-Serif" font-size="11.00">Pending Share</text>
<text text-anchor="middle" x="1547" y="-179.8" font-family="Helvetica,sans-Serif" font-size="11.00">Recipient</text>
</a>
</g>
</g>
<!-- anonymous&#45;&gt;pending_share_recipient -->
<g id="edge4" class="edge">
<title>anonymous&#45;&gt;pending_share_recipient</title>
<path fill="none" stroke="black" stroke-dasharray="5,2" d="M1597.3,-320.95C1579.89,-306.67 1559.25,-289.75 1559.25,-289.75 1559.25,-289.75 1554.15,-248.71 1550.53,-219.62"/>
<polygon fill="black" stroke="black" points="1554.03,-219.4 1549.32,-209.91 1547.08,-220.26 1554.03,-219.4"/>
<text text-anchor="middle" x="1594.12" y="-281.2" font-family="Helvetica,sans-Serif" font-size="9.00">Someone shares</text>
<text text-anchor="middle" x="1594.12" y="-271.45" font-family="Helvetica,sans-Serif" font-size="9.00">VM to email</text>
</g>
<!-- share_link_visitor -->
<g id="node3" class="node">
<title>share_link_visitor</title>
<g id="a_node3"><a xlink:title="Accessing via BoxShareLink token">
<path fill="#9b59b6" stroke="black" d="M1693.88,-208.25C1693.88,-208.25 1650.12,-208.25 1650.12,-208.25 1644.12,-208.25 1638.12,-202.25 1638.12,-196.25 1638.12,-196.25 1638.12,-184.25 1638.12,-184.25 1638.12,-178.25 1644.12,-172.25 1650.12,-172.25 1650.12,-172.25 1693.88,-172.25 1693.88,-172.25 1699.88,-172.25 1705.88,-178.25 1705.88,-184.25 1705.88,-184.25 1705.88,-196.25 1705.88,-196.25 1705.88,-202.25 1699.88,-208.25 1693.88,-208.25"/>
<text text-anchor="middle" x="1672" y="-191.8" font-family="Helvetica,sans-Serif" font-size="11.00">Share Link</text>
<text text-anchor="middle" x="1672" y="-179.8" font-family="Helvetica,sans-Serif" font-size="11.00">Visitor</text>
</a>
</g>
</g>
<!-- anonymous&#45;&gt;share_link_visitor -->
<g id="edge3" class="edge">
<title>anonymous&#45;&gt;share_link_visitor</title>
<path fill="none" stroke="black" d="M1628.42,-318.69C1637.44,-292.31 1652.69,-247.72 1662.55,-218.89"/>
<polygon fill="black" stroke="black" points="1665.75,-220.35 1665.67,-209.76 1659.12,-218.09 1665.75,-220.35"/>
<text text-anchor="middle" x="1667.85" y="-281.2" font-family="Helvetica,sans-Serif" font-size="9.00">Click share</text>
<text text-anchor="middle" x="1667.85" y="-271.45" font-family="Helvetica,sans-Serif" font-size="9.00">link token</text>
</g>
<!-- pending_ssh -->
<g id="node4" class="node">
<title>pending_ssh</title>
<g id="a_node4"><a xlink:title="SSH key captured, awaiting email verification">
<path fill="#f5b041" stroke="black" d="M1526,-723C1526,-723 1468,-723 1468,-723 1462,-723 1456,-717 1456,-711 1456,-711 1456,-699 1456,-699 1456,-693 1462,-687 1468,-687 1468,-687 1526,-687 1526,-687 1532,-687 1538,-693 1538,-699 1538,-699 1538,-711 1538,-711 1538,-717 1532,-723 1526,-723"/>
<text text-anchor="middle" x="1497" y="-706.55" font-family="Helvetica,sans-Serif" font-size="11.00">Pending SSH</text>
<text text-anchor="middle" x="1497" y="-694.55" font-family="Helvetica,sans-Serif" font-size="11.00">Registration</text>
</a>
</g>
</g>
<!-- anonymous&#45;&gt;pending_ssh -->
<g id="edge1" class="edge">
<title>anonymous&#45;&gt;pending_ssh</title>
<path fill="none" stroke="black" d="M1630.93,-364C1647.26,-399.56 1678,-466.5 1678,-466.5 1678,-466.5 1678,-564.5 1678,-564.5 1678,-564.5 1653,-592 1653,-592 1653,-592 1564,-621 1564,-621 1564,-621 1537.67,-653.63 1518.02,-677.97"/>
<polygon fill="black" stroke="black" points="1515.39,-675.65 1511.83,-685.63 1520.84,-680.05 1515.39,-675.65"/>
<text text-anchor="middle" x="1704.62" y="-493.7" font-family="Helvetica,sans-Serif" font-size="9.00">SSH connect</text>
<text text-anchor="middle" x="1704.62" y="-483.95" font-family="Helvetica,sans-Serif" font-size="9.00">with new key</text>
</g>
<!-- pending_web_reg -->
<g id="node6" class="node">
<title>pending_web_reg</title>
<g id="a_node6"><a xlink:title="Email entered, token issued">
<path fill="#f5b041" stroke="black" d="M1400.62,-723C1400.62,-723 1343.38,-723 1343.38,-723 1337.38,-723 1331.38,-717 1331.38,-711 1331.38,-711 1331.38,-699 1331.38,-699 1331.38,-693 1337.38,-687 1343.38,-687 1343.38,-687 1400.62,-687 1400.62,-687 1406.62,-687 1412.62,-693 1412.62,-699 1412.62,-699 1412.62,-711 1412.62,-711 1412.62,-717 1406.62,-723 1400.62,-723"/>
<text text-anchor="middle" x="1372" y="-706.55" font-family="Helvetica,sans-Serif" font-size="11.00">Pending Web</text>
<text text-anchor="middle" x="1372" y="-694.55" font-family="Helvetica,sans-Serif" font-size="11.00">Registration</text>
</a>
</g>
</g>
<!-- anonymous&#45;&gt;pending_web_reg -->
<g id="edge2" class="edge">
<title>anonymous&#45;&gt;pending_web_reg</title>
<path fill="none" stroke="black" d="M1616.56,-364.09C1604.16,-424.83 1570,-592 1570,-592 1570,-592 1435,-621 1435,-621 1435,-621 1410.46,-653.34 1392.01,-677.65"/>
<polygon fill="black" stroke="black" points="1389.23,-675.52 1385.97,-685.6 1394.8,-679.75 1389.23,-675.52"/>
<text text-anchor="middle" x="1618.75" y="-493.7" font-family="Helvetica,sans-Serif" font-size="9.00">Enter email</text>
<text text-anchor="middle" x="1618.75" y="-483.95" font-family="Helvetica,sans-Serif" font-size="9.00">at /auth</text>
</g>
<!-- has_share_access -->
<g id="node21" class="node">
<title>has_share_access</title>
<g id="a_node21"><a xlink:title="Active BoxShare records">
<path fill="#e67e22" stroke="black" d="M1630.88,-52C1630.88,-52 1587.12,-52 1587.12,-52 1581.12,-52 1575.12,-46 1575.12,-40 1575.12,-40 1575.12,-28 1575.12,-28 1575.12,-22 1581.12,-16 1587.12,-16 1587.12,-16 1630.88,-16 1630.88,-16 1636.88,-16 1642.88,-22 1642.88,-28 1642.88,-28 1642.88,-40 1642.88,-40 1642.88,-46 1636.88,-52 1630.88,-52"/>
<text text-anchor="middle" x="1609" y="-35.55" font-family="Helvetica,sans-Serif" font-size="11.00" fill="white">Has Share</text>
<text text-anchor="middle" x="1609" y="-23.55" font-family="Helvetica,sans-Serif" font-size="11.00" fill="white">Access</text>
</a>
</g>
</g>
<!-- pending_share_recipient&#45;&gt;has_share_access -->
<g id="edge11" class="edge">
<title>pending_share_recipient&#45;&gt;has_share_access</title>
<path fill="none" stroke="black" d="M1540.67,-171.86C1535.92,-158.83 1530.25,-143.25 1530.25,-143.25 1530.25,-143.25 1530.25,-114 1530.25,-114 1530.25,-114 1554,-106 1554,-106 1554,-106 1573.11,-81.33 1588.8,-61.08"/>
<polygon fill="black" stroke="black" points="1591.4,-63.43 1594.76,-53.38 1585.87,-59.15 1591.4,-63.43"/>
<text text-anchor="middle" x="1580.12" y="-134.7" font-family="Helvetica,sans-Serif" font-size="9.00">Register with</text>
<text text-anchor="middle" x="1580.12" y="-124.95" font-family="Helvetica,sans-Serif" font-size="9.00">same email</text>
<text text-anchor="middle" x="1580.12" y="-115.2" font-family="Helvetica,sans-Serif" font-size="9.00">(resolvePendingShares)</text>
</g>
<!-- share_link_visitor&#45;&gt;has_share_access -->
<g id="edge10" class="edge">
<title>share_link_visitor&#45;&gt;has_share_access</title>
<path fill="none" stroke="black" d="M1664.9,-171.86C1654.01,-145.21 1633.13,-94.07 1620.2,-62.41"/>
<polygon fill="black" stroke="black" points="1623.58,-61.43 1616.55,-53.5 1617.1,-64.08 1623.58,-61.43"/>
<text text-anchor="middle" x="1692.12" y="-129.82" font-family="Helvetica,sans-Serif" font-size="9.00">Login/register</text>
<text text-anchor="middle" x="1692.12" y="-120.08" font-family="Helvetica,sans-Serif" font-size="9.00">+ BoxShare created</text>
</g>
<!-- email_verification_pending -->
<g id="node5" class="node">
<title>email_verification_pending</title>
<g id="a_node5"><a xlink:title="Pairing code shown, awaiting email entry">
<path fill="#f5b041" stroke="black" d="M1523.25,-510.5C1523.25,-510.5 1448.75,-510.5 1448.75,-510.5 1442.75,-510.5 1436.75,-504.5 1436.75,-498.5 1436.75,-498.5 1436.75,-486.5 1436.75,-486.5 1436.75,-480.5 1442.75,-474.5 1448.75,-474.5 1448.75,-474.5 1523.25,-474.5 1523.25,-474.5 1529.25,-474.5 1535.25,-480.5 1535.25,-486.5 1535.25,-486.5 1535.25,-498.5 1535.25,-498.5 1535.25,-504.5 1529.25,-510.5 1523.25,-510.5"/>
<text text-anchor="middle" x="1486" y="-494.05" font-family="Helvetica,sans-Serif" font-size="11.00">Email Verification</text>
<text text-anchor="middle" x="1486" y="-482.05" font-family="Helvetica,sans-Serif" font-size="11.00">Pending</text>
</a>
</g>
</g>
<!-- pending_ssh&#45;&gt;email_verification_pending -->
<g id="edge5" class="edge">
<title>pending_ssh&#45;&gt;email_verification_pending</title>
<path fill="none" stroke="black" d="M1496.1,-686.78C1494.21,-650.7 1489.83,-566.86 1487.51,-522.39"/>
<polygon fill="black" stroke="black" points="1491.01,-522.28 1486.99,-512.48 1484.02,-522.65 1491.01,-522.28"/>
<text text-anchor="middle" x="1525.34" y="-583.45" font-family="Helvetica,sans-Serif" font-size="9.00">Key stored in</text>
<text text-anchor="middle" x="1525.34" y="-573.7" font-family="Helvetica,sans-Serif" font-size="9.00">PendingSSHKey</text>
</g>
<!-- ssh_key_user -->
<g id="node14" class="node">
<title>ssh_key_user</title>
<g id="a_node14"><a xlink:title="Has SSH key in ssh_keys table">
<path fill="#bb8fce" stroke="black" d="M919.5,-359.38C919.5,-359.38 882.5,-359.38 882.5,-359.38 876.5,-359.38 870.5,-353.38 870.5,-347.38 870.5,-347.38 870.5,-335.38 870.5,-335.38 870.5,-329.38 876.5,-323.38 882.5,-323.38 882.5,-323.38 919.5,-323.38 919.5,-323.38 925.5,-323.38 931.5,-329.38 931.5,-335.38 931.5,-335.38 931.5,-347.38 931.5,-347.38 931.5,-353.38 925.5,-359.38 919.5,-359.38"/>
<text text-anchor="middle" x="901" y="-342.93" font-family="Helvetica,sans-Serif" font-size="11.00">SSH Key</text>
<text text-anchor="middle" x="901" y="-330.93" font-family="Helvetica,sans-Serif" font-size="11.00">User</text>
</a>
</g>
</g>
<!-- email_verification_pending&#45;&gt;ssh_key_user -->
<g id="edge6" class="edge">
<title>email_verification_pending&#45;&gt;ssh_key_user</title>
<path fill="none" stroke="black" d="M1436.3,-474.01C1424.37,-469.8 1415,-466.5 1415,-466.5 1415,-466.5 1264,-426 1264,-426 1264,-426 954,-418 954,-418 954,-418 934.77,-390.57 919.48,-368.75"/>
<polygon fill="black" stroke="black" points="922.5,-366.96 913.9,-360.78 916.77,-370.98 922.5,-366.96"/>
<text text-anchor="middle" x="1387.47" y="-436.95" font-family="Helvetica,sans-Serif" font-size="9.00">Email verified</text>
<text text-anchor="middle" x="1387.47" y="-427.2" font-family="Helvetica,sans-Serif" font-size="9.00">+ createUserWithSSHKey</text>
</g>
<!-- stripe_checkout -->
<g id="node7" class="node">
<title>stripe_checkout</title>
<g id="a_node7"><a xlink:title="In Stripe payment flow">
<path fill="#f5b041" stroke="black" d="M1381.88,-510.5C1381.88,-510.5 1344.12,-510.5 1344.12,-510.5 1338.12,-510.5 1332.12,-504.5 1332.12,-498.5 1332.12,-498.5 1332.12,-486.5 1332.12,-486.5 1332.12,-480.5 1338.12,-474.5 1344.12,-474.5 1344.12,-474.5 1381.88,-474.5 1381.88,-474.5 1387.88,-474.5 1393.88,-480.5 1393.88,-486.5 1393.88,-486.5 1393.88,-498.5 1393.88,-498.5 1393.88,-504.5 1387.88,-510.5 1381.88,-510.5"/>
<text text-anchor="middle" x="1363" y="-494.05" font-family="Helvetica,sans-Serif" font-size="11.00">Stripe</text>
<text text-anchor="middle" x="1363" y="-482.05" font-family="Helvetica,sans-Serif" font-size="11.00">Checkout</text>
</a>
</g>
</g>
<!-- pending_web_reg&#45;&gt;stripe_checkout -->
<g id="edge7" class="edge">
<title>pending_web_reg&#45;&gt;stripe_checkout</title>
<path fill="none" stroke="black" d="M1371.22,-686.5C1369.81,-655 1367,-592 1367,-592 1367,-592 1365.33,-550.97 1364.15,-521.87"/>
<polygon fill="black" stroke="black" points="1367.66,-522.02 1363.76,-512.17 1360.67,-522.31 1367.66,-522.02"/>
<text text-anchor="middle" x="1401.5" y="-583.45" font-family="Helvetica,sans-Serif" font-size="9.00">Redirect to</text>
<text text-anchor="middle" x="1401.5" y="-573.7" font-family="Helvetica,sans-Serif" font-size="9.00">/billing/subscribe</text>
</g>
<!-- stripe_checkout&#45;&gt;anonymous -->
<g id="edge9" class="edge">
<title>stripe_checkout&#45;&gt;anonymous</title>
<path fill="none" stroke="black" stroke-dasharray="5,2" d="M1394.15,-476.53C1405.22,-471.2 1415,-466.5 1415,-466.5 1415,-466.5 1466,-445.5 1466,-445.5 1466,-445.5 1538.09,-397.54 1583.94,-367.04"/>
<polygon fill="black" stroke="black" points="1585.64,-370.11 1592.03,-361.65 1581.76,-364.28 1585.64,-370.11"/>
<text text-anchor="middle" x="1532.49" y="-432.08" font-family="Helvetica,sans-Serif" font-size="9.00">Checkout cancelled</text>
</g>
<!-- paying_user -->
<g id="node11" class="node">
<title>paying_user</title>
<g id="a_node11"><a xlink:title="Has active Stripe subscription">
<path fill="#2ecc71" stroke="black" d="M252.62,-359.38C252.62,-359.38 201.38,-359.38 201.38,-359.38 195.38,-359.38 189.38,-353.38 189.38,-347.38 189.38,-347.38 189.38,-335.38 189.38,-335.38 189.38,-329.38 195.38,-323.38 201.38,-323.38 201.38,-323.38 252.62,-323.38 252.62,-323.38 258.62,-323.38 264.62,-329.38 264.62,-335.38 264.62,-335.38 264.62,-347.38 264.62,-347.38 264.62,-353.38 258.62,-359.38 252.62,-359.38"/>
<text text-anchor="middle" x="227" y="-336.93" font-family="Helvetica,sans-Serif" font-size="11.00">Paying User</text>
</a>
</g>
</g>
<!-- stripe_checkout&#45;&gt;paying_user -->
<g id="edge8" class="edge">
<title>stripe_checkout&#45;&gt;paying_user</title>
<path fill="none" stroke="black" d="M1331.83,-489.56C1191.7,-480.8 626.75,-445.5 626.75,-445.5 626.75,-445.5 584,-426 584,-426 584,-426 286,-418 286,-418 286,-418 264.41,-390.33 247.35,-368.46"/>
<polygon fill="black" stroke="black" points="250.23,-366.46 241.32,-360.73 244.71,-370.77 250.23,-366.46"/>
<text text-anchor="middle" x="663.88" y="-436.95" font-family="Helvetica,sans-Serif" font-size="9.00">Checkout success</text>
<text text-anchor="middle" x="663.88" y="-427.2" font-family="Helvetica,sans-Serif" font-size="9.00">+ ActivateAccount</text>
</g>
<!-- grandfathered_user -->
<g id="node8" class="node">
<title>grandfathered_user</title>
<g id="a_node8"><a xlink:title="Created before 2026&#45;01&#45;06, no billing required">
<path fill="#58d68d" stroke="black" d="M359.88,-510.5C359.88,-510.5 298.12,-510.5 298.12,-510.5 292.12,-510.5 286.12,-504.5 286.12,-498.5 286.12,-498.5 286.12,-486.5 286.12,-486.5 286.12,-480.5 292.12,-474.5 298.12,-474.5 298.12,-474.5 359.88,-474.5 359.88,-474.5 365.88,-474.5 371.88,-480.5 371.88,-486.5 371.88,-486.5 371.88,-498.5 371.88,-498.5 371.88,-504.5 365.88,-510.5 359.88,-510.5"/>
<text text-anchor="middle" x="329" y="-494.05" font-family="Helvetica,sans-Serif" font-size="11.00">Grandfathered</text>
<text text-anchor="middle" x="329" y="-482.05" font-family="Helvetica,sans-Serif" font-size="11.00">User</text>
</a>
</g>
</g>
<!-- passkey_user -->
<g id="node15" class="node">
<title>passkey_user</title>
<g id="a_node15"><a xlink:title="WebAuthn passkey registered">
<path fill="#a569bd" stroke="black" d="M1116.25,-359.38C1116.25,-359.38 1083.75,-359.38 1083.75,-359.38 1077.75,-359.38 1071.75,-353.38 1071.75,-347.38 1071.75,-347.38 1071.75,-335.38 1071.75,-335.38 1071.75,-329.38 1077.75,-323.38 1083.75,-323.38 1083.75,-323.38 1116.25,-323.38 1116.25,-323.38 1122.25,-323.38 1128.25,-329.38 1128.25,-335.38 1128.25,-335.38 1128.25,-347.38 1128.25,-347.38 1128.25,-353.38 1122.25,-359.38 1116.25,-359.38"/>
<text text-anchor="middle" x="1100" y="-342.93" font-family="Helvetica,sans-Serif" font-size="11.00">Passkey</text>
<text text-anchor="middle" x="1100" y="-330.93" font-family="Helvetica,sans-Serif" font-size="11.00">Enabled</text>
</a>
</g>
</g>
<!-- grandfathered_user&#45;&gt;passkey_user -->
<g id="edge24" class="edge">
<title>grandfathered_user&#45;&gt;passkey_user</title>
<path fill="none" stroke="black" stroke-dasharray="5,2" d="M372.1,-488.95C535.16,-479.28 1105,-445.5 1105,-445.5 1105,-445.5 1105,-426 1105,-426 1105,-426 1103.15,-395.13 1101.71,-370.9"/>
<polygon fill="black" stroke="black" points="1105.22,-370.99 1101.13,-361.22 1098.23,-371.41 1105.22,-370.99"/>
<text text-anchor="middle" x="1122.25" y="-436.95" font-family="Helvetica,sans-Serif" font-size="9.00">Register</text>
<text text-anchor="middle" x="1122.25" y="-427.2" font-family="Helvetica,sans-Serif" font-size="9.00">passkey</text>
</g>
<!-- discord_linked -->
<g id="node16" class="node">
<title>discord_linked</title>
<g id="a_node16"><a xlink:title="discord_id populated">
<path fill="#9b59b6" stroke="black" d="M1017,-359.38C1017,-359.38 987,-359.38 987,-359.38 981,-359.38 975,-353.38 975,-347.38 975,-347.38 975,-335.38 975,-335.38 975,-329.38 981,-323.38 987,-323.38 987,-323.38 1017,-323.38 1017,-323.38 1023,-323.38 1029,-329.38 1029,-335.38 1029,-335.38 1029,-347.38 1029,-347.38 1029,-353.38 1023,-359.38 1017,-359.38"/>
<text text-anchor="middle" x="1002" y="-342.93" font-family="Helvetica,sans-Serif" font-size="11.00">Discord</text>
<text text-anchor="middle" x="1002" y="-330.93" font-family="Helvetica,sans-Serif" font-size="11.00">Linked</text>
</a>
</g>
</g>
<!-- grandfathered_user&#45;&gt;discord_linked -->
<g id="edge25" class="edge">
<title>grandfathered_user&#45;&gt;discord_linked</title>
<path fill="none" stroke="black" stroke-dasharray="5,2" d="M372.12,-488.73C526.7,-478.79 1044,-445.5 1044,-445.5 1044,-445.5 1044,-426 1044,-426 1044,-426 1028.07,-394.28 1015.83,-369.91"/>
<polygon fill="black" stroke="black" points="1019,-368.42 1011.38,-361.06 1012.74,-371.56 1019,-368.42"/>
<text text-anchor="middle" x="1069.5" y="-432.08" font-family="Helvetica,sans-Serif" font-size="9.00">Link Discord</text>
</g>
<!-- has_vms -->
<g id="node18" class="node">
<title>has_vms</title>
<path fill="#3498db" stroke="black" d="M724.12,-208.25C724.12,-208.25 687.88,-208.25 687.88,-208.25 681.88,-208.25 675.88,-202.25 675.88,-196.25 675.88,-196.25 675.88,-184.25 675.88,-184.25 675.88,-178.25 681.88,-172.25 687.88,-172.25 687.88,-172.25 724.12,-172.25 724.12,-172.25 730.12,-172.25 736.12,-178.25 736.12,-184.25 736.12,-184.25 736.12,-196.25 736.12,-196.25 736.12,-202.25 730.12,-208.25 724.12,-208.25"/>
<text text-anchor="middle" x="706" y="-185.8" font-family="Helvetica,sans-Serif" font-size="11.00" fill="white">Has VMs</text>
</g>
<!-- grandfathered_user&#45;&gt;has_vms -->
<g id="edge27" class="edge">
<title>grandfathered_user&#45;&gt;has_vms</title>
<path fill="none" stroke="black" d="M372.32,-489.67C574.68,-481.12 1417,-445.5 1417,-445.5 1417,-445.5 1417,-426 1417,-426 1417,-426 1146,-315.38 1146,-315.38 1146,-315.38 857.18,-233.9 747.54,-202.97"/>
<polygon fill="black" stroke="black" points="748.62,-199.64 738.05,-200.29 746.72,-206.37 748.62,-199.64"/>
<text text-anchor="middle" x="1418.68" y="-337.7" font-family="Helvetica,sans-Serif" font-size="9.00">Create VM</text>
</g>
<!-- support_user -->
<g id="node24" class="node">
<title>support_user</title>
<g id="a_node24"><a xlink:title="root_support=true, can access support+vm@exe.cloud">
<path fill="#7d3c98" stroke="black" d="M146.12,-208.25C146.12,-208.25 115.88,-208.25 115.88,-208.25 109.88,-208.25 103.88,-202.25 103.88,-196.25 103.88,-196.25 103.88,-184.25 103.88,-184.25 103.88,-178.25 109.88,-172.25 115.88,-172.25 115.88,-172.25 146.12,-172.25 146.12,-172.25 152.12,-172.25 158.12,-178.25 158.12,-184.25 158.12,-184.25 158.12,-196.25 158.12,-196.25 158.12,-202.25 152.12,-208.25 146.12,-208.25"/>
<text text-anchor="middle" x="131" y="-191.8" font-family="Helvetica,sans-Serif" font-size="11.00" fill="white">Support</text>
<text text-anchor="middle" x="131" y="-179.8" font-family="Helvetica,sans-Serif" font-size="11.00" fill="white">Access</text>
</a>
</g>
</g>
<!-- grandfathered_user&#45;&gt;support_user -->
<g id="edge38" class="edge">
<title>grandfathered_user&#45;&gt;support_user</title>
<path fill="none" stroke="black" stroke-dasharray="5,2" d="M286,-477.54C268.36,-471.82 252,-466.5 252,-466.5 252,-466.5 92,-445.5 92,-445.5 92,-445.5 10.25,-418 10.25,-418 10.25,-418 10.25,-315.38 10.25,-315.38 10.25,-315.38 70.91,-253.02 106.25,-216.7"/>
<polygon fill="black" stroke="black" points="108.69,-219.2 113.15,-209.59 103.67,-214.32 108.69,-219.2"/>
<text text-anchor="middle" x="36.12" y="-342.58" font-family="Helvetica,sans-Serif" font-size="9.00">Grant</text>
<text text-anchor="middle" x="36.12" y="-332.83" font-family="Helvetica,sans-Serif" font-size="9.00">root_support</text>
</g>
<!-- trial_user -->
<g id="node9" class="node">
<title>trial_user</title>
<g id="a_node9"><a xlink:title="billing_exemption=&#39;trial&#39;, expires at billing_trial_ends_at">
<path fill="#82e0aa" stroke="black" d="M134.62,-359.38C134.62,-359.38 95.38,-359.38 95.38,-359.38 89.38,-359.38 83.38,-353.38 83.38,-347.38 83.38,-347.38 83.38,-335.38 83.38,-335.38 83.38,-329.38 89.38,-323.38 95.38,-323.38 95.38,-323.38 134.62,-323.38 134.62,-323.38 140.62,-323.38 146.62,-329.38 146.62,-335.38 146.62,-335.38 146.62,-347.38 146.62,-347.38 146.62,-353.38 140.62,-359.38 134.62,-359.38"/>
<text text-anchor="middle" x="115" y="-336.93" font-family="Helvetica,sans-Serif" font-size="11.00">Trial User</text>
</a>
</g>
</g>
<!-- trial_user&#45;&gt;has_vms -->
<g id="edge28" class="edge">
<title>trial_user&#45;&gt;has_vms</title>
<path fill="none" stroke="black" d="M147.05,-325.26C158.21,-319.99 168,-315.38 168,-315.38 168,-315.38 243,-289.75 243,-289.75 243,-289.75 281.5,-270.25 281.5,-270.25 281.5,-270.25 540,-262.25 540,-262.25 540,-262.25 616.06,-229.72 665.21,-208.7"/>
<polygon fill="black" stroke="black" points="666.34,-212.02 674.16,-204.87 663.59,-205.58 666.34,-212.02"/>
<text text-anchor="middle" x="303.25" y="-276.32" font-family="Helvetica,sans-Serif" font-size="9.00">Create VM</text>
</g>
<!-- trial_expired -->
<g id="node23" class="node">
<title>trial_expired</title>
<g id="a_node23"><a xlink:title="billing_trial_ends_at in past">
<path fill="#c0392b" stroke="black" d="M397,-208.25C397,-208.25 367,-208.25 367,-208.25 361,-208.25 355,-202.25 355,-196.25 355,-196.25 355,-184.25 355,-184.25 355,-178.25 361,-172.25 367,-172.25 367,-172.25 397,-172.25 397,-172.25 403,-172.25 409,-178.25 409,-184.25 409,-184.25 409,-196.25 409,-196.25 409,-202.25 403,-208.25 397,-208.25"/>
<text text-anchor="middle" x="382" y="-191.8" font-family="Helvetica,sans-Serif" font-size="11.00" fill="white">Trial</text>
<text text-anchor="middle" x="382" y="-179.8" font-family="Helvetica,sans-Serif" font-size="11.00" fill="white">Expired</text>
</a>
</g>
</g>
<!-- trial_user&#45;&gt;trial_expired -->
<g id="edge17" class="edge">
<title>trial_user&#45;&gt;trial_expired</title>
<path fill="none" stroke="black" d="M103.56,-322.95C93.94,-308.31 81.75,-289.75 81.75,-289.75 81.75,-289.75 81.75,-270.25 81.75,-270.25 81.75,-270.25 195,-262.25 195,-262.25 195,-262.25 289.48,-226.38 344.13,-205.63"/>
<polygon fill="black" stroke="black" points="345.29,-208.93 353.39,-202.11 342.8,-202.39 345.29,-208.93"/>
<text text-anchor="middle" x="123.38" y="-281.2" font-family="Helvetica,sans-Serif" font-size="9.00">billing_trial_ends_at</text>
<text text-anchor="middle" x="123.38" y="-271.45" font-family="Helvetica,sans-Serif" font-size="9.00">passes</text>
</g>
<!-- free_user -->
<g id="node10" class="node">
<title>free_user</title>
<g id="a_node10"><a xlink:title="billing_exemption=&#39;free&#39;, no expiration">
<path fill="#58d68d" stroke="black" d="M360.38,-359.38C360.38,-359.38 319.62,-359.38 319.62,-359.38 313.62,-359.38 307.62,-353.38 307.62,-347.38 307.62,-347.38 307.62,-335.38 307.62,-335.38 307.62,-329.38 313.62,-323.38 319.62,-323.38 319.62,-323.38 360.38,-323.38 360.38,-323.38 366.38,-323.38 372.38,-329.38 372.38,-335.38 372.38,-335.38 372.38,-347.38 372.38,-347.38 372.38,-353.38 366.38,-359.38 360.38,-359.38"/>
<text text-anchor="middle" x="340" y="-336.93" font-family="Helvetica,sans-Serif" font-size="11.00">Free User</text>
</a>
</g>
</g>
<!-- free_user&#45;&gt;has_vms -->
<g id="edge29" class="edge">
<title>free_user&#45;&gt;has_vms</title>
<path fill="none" stroke="black" d="M372.59,-336.36C469.8,-324.39 751,-289.75 751,-289.75 751,-289.75 751,-270.25 751,-270.25 751,-270.25 734.46,-241.2 721.43,-218.34"/>
<polygon fill="black" stroke="black" points="724.5,-216.66 716.51,-209.71 718.42,-220.13 724.5,-216.66"/>
<text text-anchor="middle" x="772.75" y="-276.32" font-family="Helvetica,sans-Serif" font-size="9.00">Create VM</text>
</g>
<!-- paying_user&#45;&gt;ssh_key_user -->
<g id="edge21" class="edge">
<title>paying_user&#45;&gt;ssh_key_user</title>
<path fill="none" stroke="black" stroke-dasharray="5,2" d="M247.93,-368.56C264.89,-390.59 286,-418 286,-418 286,-418 710.5,-421.34 710.5,-421.34 710.5,-421.34 773.5,-421.34 773.5,-421.34 773.5,-421.34 849,-418 849,-418 849,-418 867.44,-390.83 882.36,-368.85"/>
<polygon fill="black" stroke="black" points="250.78,-366.52 241.91,-360.74 245.23,-370.8 250.78,-366.52"/>
<polygon fill="black" stroke="black" points="885.11,-371.03 887.83,-360.79 879.32,-367.1 885.11,-371.03"/>
<text text-anchor="middle" x="742" y="-436.95" font-family="Helvetica,sans-Serif" font-size="9.00">Add SSH key</text>
<text text-anchor="middle" x="742" y="-427.2" font-family="Helvetica,sans-Serif" font-size="9.00">(InsertSSHKey)</text>
</g>
<!-- paying_user&#45;&gt;passkey_user -->
<g id="edge22" class="edge">
<title>paying_user&#45;&gt;passkey_user</title>
<path fill="none" stroke="black" stroke-dasharray="5,2" d="M240.98,-359.54C258.43,-382.2 286,-418 286,-418 286,-418 936.75,-421.34 936.75,-421.34 936.75,-421.34 971.25,-421.34 971.25,-421.34 971.25,-421.34 1051,-418 1051,-418 1051,-418 1068.22,-391.08 1082.24,-369.15"/>
<polygon fill="black" stroke="black" points="1085.13,-371.12 1087.57,-360.81 1079.24,-367.35 1085.13,-371.12"/>
<text text-anchor="middle" x="954" y="-436.95" font-family="Helvetica,sans-Serif" font-size="9.00">Register</text>
<text text-anchor="middle" x="954" y="-427.2" font-family="Helvetica,sans-Serif" font-size="9.00">passkey</text>
</g>
<!-- paying_user&#45;&gt;discord_linked -->
<g id="edge23" class="edge">
<title>paying_user&#45;&gt;discord_linked</title>
<path fill="none" stroke="black" stroke-dasharray="5,2" d="M240.98,-359.54C258.43,-382.2 286,-418 286,-418 286,-418 880.5,-421.34 880.5,-421.34 880.5,-421.34 931.5,-421.34 931.5,-421.34 931.5,-421.34 953,-418 953,-418 953,-418 970.22,-391.08 984.24,-369.15"/>
<polygon fill="black" stroke="black" points="987.13,-371.12 989.57,-360.81 981.24,-367.35 987.13,-371.12"/>
<text text-anchor="middle" x="906" y="-436.95" font-family="Helvetica,sans-Serif" font-size="9.00">Link Discord</text>
<text text-anchor="middle" x="906" y="-427.2" font-family="Helvetica,sans-Serif" font-size="9.00">account</text>
</g>
<!-- paying_user&#45;&gt;has_vms -->
<g id="edge26" class="edge">
<title>paying_user&#45;&gt;has_vms</title>
<path fill="none" stroke="black" d="M265.03,-324.26C276.45,-319.42 286,-315.38 286,-315.38 286,-315.38 659,-289.75 659,-289.75 659,-289.75 679.11,-247.61 693.02,-218.46"/>
<polygon fill="black" stroke="black" points="696.01,-220.31 697.16,-209.77 689.7,-217.29 696.01,-220.31"/>
<text text-anchor="middle" x="689.74" y="-276.32" font-family="Helvetica,sans-Serif" font-size="9.00">Create VM</text>
</g>
<!-- disposable_email_user -->
<g id="node22" class="node">
<title>disposable_email_user</title>
<g id="a_node22"><a xlink:title="new_vm_creation_disabled=true">
<path fill="#e74c3c" stroke="black" d="M509.62,-208.25C509.62,-208.25 464.38,-208.25 464.38,-208.25 458.38,-208.25 452.38,-202.25 452.38,-196.25 452.38,-196.25 452.38,-184.25 452.38,-184.25 452.38,-178.25 458.38,-172.25 464.38,-172.25 464.38,-172.25 509.62,-172.25 509.62,-172.25 515.62,-172.25 521.62,-178.25 521.62,-184.25 521.62,-184.25 521.62,-196.25 521.62,-196.25 521.62,-202.25 515.62,-208.25 509.62,-208.25"/>
<text text-anchor="middle" x="487" y="-191.8" font-family="Helvetica,sans-Serif" font-size="11.00" fill="white">Disposable</text>
<text text-anchor="middle" x="487" y="-179.8" font-family="Helvetica,sans-Serif" font-size="11.00" fill="white">Email User</text>
</a>
</g>
</g>
<!-- paying_user&#45;&gt;disposable_email_user -->
<g id="edge36" class="edge">
<title>paying_user&#45;&gt;disposable_email_user</title>
<path fill="none" stroke="red" stroke-dasharray="5,2" d="M265.03,-324.26C276.45,-319.42 286,-315.38 286,-315.38 286,-315.38 394,-289.75 394,-289.75 394,-289.75 431,-262.25 431,-262.25 431,-262.25 450.46,-237.58 466.43,-217.33"/>
<polygon fill="red" stroke="red" points="469.06,-219.64 472.51,-209.63 463.57,-215.31 469.06,-219.64"/>
<text text-anchor="middle" x="454.94" y="-281.2" font-family="Helvetica,sans-Serif" font-size="9.00">IPQS detects</text>
<text text-anchor="middle" x="454.94" y="-271.45" font-family="Helvetica,sans-Serif" font-size="9.00">disposable email</text>
</g>
<!-- paying_user&#45;&gt;support_user -->
<g id="edge37" class="edge">
<title>paying_user&#45;&gt;support_user</title>
<path fill="none" stroke="black" stroke-dasharray="5,2" d="M212.63,-322.95C200.56,-308.31 185.25,-289.75 185.25,-289.75 185.25,-289.75 162.04,-247.61 145.99,-218.46"/>
<polygon fill="black" stroke="black" points="149.07,-216.8 141.18,-209.73 142.94,-220.18 149.07,-216.8"/>
<text text-anchor="middle" x="211.12" y="-281.2" font-family="Helvetica,sans-Serif" font-size="9.00">Grant</text>
<text text-anchor="middle" x="211.12" y="-271.45" font-family="Helvetica,sans-Serif" font-size="9.00">root_support</text>
</g>
<!-- billing_required -->
<g id="node12" class="node">
<title>billing_required</title>
<g id="a_node12"><a xlink:title="New user, must complete billing to use VMs">
<path fill="#e74c3c" stroke="black" d="M218.12,-510.5C218.12,-510.5 181.88,-510.5 181.88,-510.5 175.88,-510.5 169.88,-504.5 169.88,-498.5 169.88,-498.5 169.88,-486.5 169.88,-486.5 169.88,-480.5 175.88,-474.5 181.88,-474.5 181.88,-474.5 218.12,-474.5 218.12,-474.5 224.12,-474.5 230.12,-480.5 230.12,-486.5 230.12,-486.5 230.12,-498.5 230.12,-498.5 230.12,-504.5 224.12,-510.5 218.12,-510.5"/>
<text text-anchor="middle" x="200" y="-494.05" font-family="Helvetica,sans-Serif" font-size="11.00">Billing</text>
<text text-anchor="middle" x="200" y="-482.05" font-family="Helvetica,sans-Serif" font-size="11.00">Required</text>
</a>
</g>
</g>
<!-- billing_required&#45;&gt;trial_user -->
<g id="edge14" class="edge">
<title>billing_required&#45;&gt;trial_user</title>
<path fill="none" stroke="black" d="M169.61,-477.2C140.91,-463.7 102.25,-445.5 102.25,-445.5 102.25,-445.5 102.25,-426 102.25,-426 102.25,-426 106.96,-395.13 110.65,-370.9"/>
<polygon fill="black" stroke="black" points="114.08,-371.61 112.13,-361.2 107.16,-370.56 114.08,-371.61"/>
<text text-anchor="middle" x="137.12" y="-436.95" font-family="Helvetica,sans-Serif" font-size="9.00">Apply invite code</text>
<text text-anchor="middle" x="137.12" y="-427.2" font-family="Helvetica,sans-Serif" font-size="9.00">(plan_type=&#39;trial&#39;)</text>
</g>
<!-- billing_required&#45;&gt;free_user -->
<g id="edge15" class="edge">
<title>billing_required&#45;&gt;free_user</title>
<path fill="none" stroke="black" d="M220.42,-474.11C235.71,-461.09 254,-445.5 254,-445.5 254,-445.5 286,-418 286,-418 286,-418 305.59,-390.57 321.17,-368.75"/>
<polygon fill="black" stroke="black" points="323.9,-370.94 326.87,-360.77 318.21,-366.87 323.9,-370.94"/>
<text text-anchor="middle" x="311.79" y="-436.95" font-family="Helvetica,sans-Serif" font-size="9.00">Apply invite code</text>
<text text-anchor="middle" x="311.79" y="-427.2" font-family="Helvetica,sans-Serif" font-size="9.00">(plan_type=&#39;free&#39;)</text>
</g>
<!-- billing_required&#45;&gt;paying_user -->
<g id="edge16" class="edge">
<title>billing_required&#45;&gt;paying_user</title>
<path fill="none" stroke="black" d="M193.19,-474.11C188.1,-461.09 182,-445.5 182,-445.5 182,-445.5 182,-426 182,-426 182,-426 199.22,-394 212.36,-369.59"/>
<polygon fill="black" stroke="black" points="215.3,-371.5 216.96,-361.04 209.14,-368.19 215.3,-371.5"/>
<text text-anchor="middle" x="215" y="-436.95" font-family="Helvetica,sans-Serif" font-size="9.00">Complete Stripe</text>
<text text-anchor="middle" x="215" y="-427.2" font-family="Helvetica,sans-Serif" font-size="9.00">checkout</text>
</g>
<!-- no_vms -->
<g id="node17" class="node">
<title>no_vms</title>
<path fill="#85c1e9" stroke="black" d="M599.5,-52C599.5,-52 568.5,-52 568.5,-52 562.5,-52 556.5,-46 556.5,-40 556.5,-40 556.5,-28 556.5,-28 556.5,-22 562.5,-16 568.5,-16 568.5,-16 599.5,-16 599.5,-16 605.5,-16 611.5,-22 611.5,-28 611.5,-28 611.5,-40 611.5,-40 611.5,-46 605.5,-52 599.5,-52"/>
<text text-anchor="middle" x="584" y="-29.55" font-family="Helvetica,sans-Serif" font-size="11.00">No VMs</text>
</g>
<!-- billing_required&#45;&gt;no_vms -->
<!-- email_only_user -->
<g id="node13" class="node">
<title>email_only_user</title>
<g id="a_node13"><a xlink:title="created_for_login_with_exe=true, no SSH key">
<path fill="#d2b4de" stroke="black" d="M815.75,-359.38C815.75,-359.38 744.25,-359.38 744.25,-359.38 738.25,-359.38 732.25,-353.38 732.25,-347.38 732.25,-347.38 732.25,-335.38 732.25,-335.38 732.25,-329.38 738.25,-323.38 744.25,-323.38 744.25,-323.38 815.75,-323.38 815.75,-323.38 821.75,-323.38 827.75,-329.38 827.75,-335.38 827.75,-335.38 827.75,-347.38 827.75,-347.38 827.75,-353.38 821.75,-359.38 815.75,-359.38"/>
<text text-anchor="middle" x="780" y="-342.93" font-family="Helvetica,sans-Serif" font-size="11.00">Email&#45;Only User</text>
<text text-anchor="middle" x="780" y="-330.93" font-family="Helvetica,sans-Serif" font-size="11.00">(Login&#45;with&#45;Exe)</text>
</a>
</g>
</g>
<!-- email_only_user&#45;&gt;grandfathered_user -->
<g id="edge20" class="edge">
<title>email_only_user&#45;&gt;grandfathered_user</title>
<path fill="none" stroke="black" stroke-dasharray="5,2" d="M731.98,-357.62C655.97,-381.74 516.5,-426 516.5,-426 516.5,-426 474,-445.5 474,-445.5 474,-445.5 424.16,-461.32 382.92,-474.4"/>
<polygon fill="black" stroke="black" points="382.03,-471.01 373.55,-477.37 384.15,-477.68 382.03,-471.01"/>
<text text-anchor="middle" x="547.25" y="-436.95" font-family="Helvetica,sans-Serif" font-size="9.00">Created before</text>
<text text-anchor="middle" x="547.25" y="-427.2" font-family="Helvetica,sans-Serif" font-size="9.00">2026&#45;01&#45;06</text>
</g>
<!-- email_only_user&#45;&gt;billing_required -->
<g id="edge19" class="edge">
<title>email_only_user&#45;&gt;billing_required</title>
<path fill="none" stroke="black" d="M732.11,-353.22C632.2,-375.85 410.75,-426 410.75,-426 410.75,-426 357,-445.5 357,-445.5 357,-445.5 265,-466.5 265,-466.5 265,-466.5 254.08,-470.71 241.19,-475.66"/>
<polygon fill="black" stroke="black" points="240.09,-472.34 232.01,-479.19 242.6,-478.87 240.09,-472.34"/>
<text text-anchor="middle" x="437.38" y="-436.95" font-family="Helvetica,sans-Serif" font-size="9.00">Created after</text>
<text text-anchor="middle" x="437.38" y="-427.2" font-family="Helvetica,sans-Serif" font-size="9.00">2026&#45;01&#45;06</text>
</g>
<!-- ssh_key_user&#45;&gt;grandfathered_user -->
<g id="edge12" class="edge">
<title>ssh_key_user&#45;&gt;grandfathered_user</title>
<path fill="none" stroke="black" d="M913.03,-359.54C928.66,-381.85 954,-418 954,-418 954,-418 972,-426 972,-426 972,-426 972,-445.5 972,-445.5 972,-445.5 538.33,-476.53 383.29,-487.62"/>
<polygon fill="black" stroke="black" points="383.42,-484.1 373.7,-488.31 383.92,-491.08 383.42,-484.1"/>
<text text-anchor="middle" x="1002.75" y="-436.95" font-family="Helvetica,sans-Serif" font-size="9.00">Created before</text>
<text text-anchor="middle" x="1002.75" y="-427.2" font-family="Helvetica,sans-Serif" font-size="9.00">2026&#45;01&#45;06</text>
</g>
<!-- ssh_key_user&#45;&gt;billing_required -->
<g id="edge13" class="edge">
<title>ssh_key_user&#45;&gt;billing_required</title>
<path fill="none" stroke="black" d="M889.2,-359.54C873.86,-381.85 849,-418 849,-418 849,-418 817.75,-426 817.75,-426 817.75,-426 775,-445.5 775,-445.5 775,-445.5 265,-466.5 265,-466.5 265,-466.5 254.08,-470.71 241.19,-475.66"/>
<polygon fill="black" stroke="black" points="240.09,-472.34 232.01,-479.19 242.6,-478.87 240.09,-472.34"/>
<text text-anchor="middle" x="844.38" y="-436.95" font-family="Helvetica,sans-Serif" font-size="9.00">Created after</text>
<text text-anchor="middle" x="844.38" y="-427.2" font-family="Helvetica,sans-Serif" font-size="9.00">2026&#45;01&#45;06</text>
</g>
<!-- ssh_key_user&#45;&gt;disposable_email_user -->
<g id="edge35" class="edge">
<title>ssh_key_user&#45;&gt;disposable_email_user</title>
<path fill="none" stroke="red" d="M870.15,-325.55C858.95,-320.16 849,-315.38 849,-315.38 849,-315.38 583.25,-289.75 583.25,-289.75 583.25,-289.75 538,-262.25 538,-262.25 538,-262.25 520.44,-237.81 505.93,-217.6"/>
<polygon fill="red" stroke="red" points="508.91,-215.75 500.23,-209.67 503.22,-219.83 508.91,-215.75"/>
<text text-anchor="middle" x="618.12" y="-281.2" font-family="Helvetica,sans-Serif" font-size="9.00">IPQS detects</text>
<text text-anchor="middle" x="618.12" y="-271.45" font-family="Helvetica,sans-Serif" font-size="9.00">disposable email</text>
</g>
<!-- has_vms&#45;&gt;no_vms -->
<g id="edge34" class="edge">
<title>has_vms&#45;&gt;no_vms</title>
<path fill="none" stroke="black" stroke-dasharray="5,2" d="M681.33,-171.86C662.85,-158.83 640.75,-143.25 640.75,-143.25 640.75,-143.25 615.25,-94.61 598.44,-62.54"/>
<polygon fill="black" stroke="black" points="601.56,-60.96 593.82,-53.73 595.36,-64.21 601.56,-60.96"/>
<text text-anchor="middle" x="670.38" y="-124.95" font-family="Helvetica,sans-Serif" font-size="9.00">Delete all VMs</text>
</g>
<!-- vm_share_owner -->
<g id="node19" class="node">
<title>vm_share_owner</title>
<g id="a_node19"><a xlink:title="Has shared VMs with others">
<path fill="#2980b9" stroke="black" d="M739.38,-52C739.38,-52 698.62,-52 698.62,-52 692.62,-52 686.62,-46 686.62,-40 686.62,-40 686.62,-28 686.62,-28 686.62,-22 692.62,-16 698.62,-16 698.62,-16 739.38,-16 739.38,-16 745.38,-16 751.38,-22 751.38,-28 751.38,-28 751.38,-40 751.38,-40 751.38,-46 745.38,-52 739.38,-52"/>
<text text-anchor="middle" x="719" y="-35.55" font-family="Helvetica,sans-Serif" font-size="11.00" fill="white">VM Share</text>
<text text-anchor="middle" x="719" y="-23.55" font-family="Helvetica,sans-Serif" font-size="11.00" fill="white">Owner</text>
</a>
</g>
</g>
<!-- has_vms&#45;&gt;vm_share_owner -->
<g id="edge32" class="edge">
<title>has_vms&#45;&gt;vm_share_owner</title>
<path fill="none" stroke="black" d="M707.47,-171.86C709.69,-145.45 713.95,-94.96 716.62,-63.24"/>
<polygon fill="black" stroke="black" points="720.08,-63.86 717.43,-53.6 713.1,-63.27 720.08,-63.86"/>
<text text-anchor="middle" x="740.99" y="-129.82" font-family="Helvetica,sans-Serif" font-size="9.00">Share VM</text>
<text text-anchor="middle" x="740.99" y="-120.08" font-family="Helvetica,sans-Serif" font-size="9.00">with email/link</text>
</g>
<!-- vm_share_owner&#45;&gt;pending_share_recipient -->
<g id="edge33" class="edge">
<title>vm_share_owner&#45;&gt;pending_share_recipient</title>
<path fill="none" stroke="black" stroke-dasharray="5,2" d="M751.51,-41.06C877.3,-64.49 1332.93,-149.37 1491.85,-178.98"/>
<polygon fill="black" stroke="black" points="1490.82,-182.34 1501.29,-180.73 1492.1,-175.46 1490.82,-182.34"/>
<text text-anchor="middle" x="1300.18" y="-129.82" font-family="Helvetica,sans-Serif" font-size="9.00">Invitee not</text>
<text text-anchor="middle" x="1300.18" y="-120.08" font-family="Helvetica,sans-Serif" font-size="9.00">registered</text>
</g>
<!-- no_shares -->
<g id="node20" class="node">
<title>no_shares</title>
<path fill="#f5cba7" stroke="black" d="M1520.25,-52C1520.25,-52 1481.75,-52 1481.75,-52 1475.75,-52 1469.75,-46 1469.75,-40 1469.75,-40 1469.75,-28 1469.75,-28 1469.75,-22 1475.75,-16 1481.75,-16 1481.75,-16 1520.25,-16 1520.25,-16 1526.25,-16 1532.25,-22 1532.25,-28 1532.25,-28 1532.25,-40 1532.25,-40 1532.25,-46 1526.25,-52 1520.25,-52"/>
<text text-anchor="middle" x="1501" y="-35.55" font-family="Helvetica,sans-Serif" font-size="11.00">No Share</text>
<text text-anchor="middle" x="1501" y="-23.55" font-family="Helvetica,sans-Serif" font-size="11.00">Access</text>
</g>
<!-- disposable_email_user&#45;&gt;no_vms -->
<g id="edge31" class="edge">
<title>disposable_email_user&#45;&gt;no_vms</title>
<path fill="none" stroke="red" stroke-dasharray="5,2" d="M488.33,-171.8C490.03,-149.57 492.75,-114 492.75,-114 492.75,-114 528.76,-82.82 555.54,-59.64"/>
<polygon fill="red" stroke="red" points="557.79,-62.32 563.06,-53.13 553.2,-57.03 557.79,-62.32"/>
<text text-anchor="middle" x="519.38" y="-129.82" font-family="Helvetica,sans-Serif" font-size="9.00">Blocked from</text>
<text text-anchor="middle" x="519.38" y="-120.08" font-family="Helvetica,sans-Serif" font-size="9.00">VM creation</text>
</g>
<!-- trial_expired&#45;&gt;paying_user -->
<g id="edge18" class="edge">
<title>trial_expired&#45;&gt;paying_user</title>
<path fill="none" stroke="black" d="M373.81,-208.41C360.35,-236.63 335,-289.75 335,-289.75 335,-289.75 303.32,-304.6 274.27,-318.22"/>
<polygon fill="black" stroke="black" points="273.11,-314.9 265.54,-322.31 276.08,-321.24 273.11,-314.9"/>
<text text-anchor="middle" x="363.87" y="-281.2" font-family="Helvetica,sans-Serif" font-size="9.00">Complete</text>
<text text-anchor="middle" x="363.87" y="-271.45" font-family="Helvetica,sans-Serif" font-size="9.00">billing</text>
</g>
<!-- leg_solid -->
<g id="node25" class="node">
<title>leg_solid</title>
<text text-anchor="middle" x="1626" y="-706.2" font-family="Helvetica,sans-Serif" font-size="9.00">Solid line =</text>
<text text-anchor="middle" x="1626" y="-696.45" font-family="Helvetica,sans-Serif" font-size="9.00">Primary transition</text>
</g>
<!-- leg_dashed -->
<g id="node26" class="node">
<title>leg_dashed</title>
<text text-anchor="middle" x="1752" y="-706.2" font-family="Helvetica,sans-Serif" font-size="9.00">Dashed line =</text>
<text text-anchor="middle" x="1752" y="-696.45" font-family="Helvetica,sans-Serif" font-size="9.00">Secondary/rare</text>
</g>
<!-- leg_red -->
<g id="node27" class="node">
<title>leg_red</title>
<text text-anchor="middle" x="1881" y="-706.2" font-family="Helvetica,sans-Serif" font-size="9.00">Red line =</text>
<text text-anchor="middle" x="1881" y="-696.45" font-family="Helvetica,sans-Serif" font-size="9.00">Blocking/restriction</text>
</g>
<!-- questions -->
<g id="node28" class="node">
<title>questions</title>
<polygon fill="#fffacd" stroke="black" points="2299.12,-789 1970.88,-789 1970.88,-621 2305.12,-621 2305.12,-783 2299.12,-789"/>
<polyline fill="none" stroke="black" points="2299.12,-789 2299.12,-783"/>
<polyline fill="none" stroke="black" points="2305.12,-783 2299.12,-783"/>
<text text-anchor="start" x="1980.88" y="-773.55" font-family="Helvetica,sans-Serif" font-weight="bold" font-size="11.00">Key Questions Answered:</text>
<text text-anchor="start" x="1980.88" y="-756.55" font-family="Helvetica,sans-Serif" font-size="11.00">1. Not&#45;yet&#45;exe users = pending_share_recipient (has email share)</text>
<text text-anchor="start" x="1980.88" y="-740.55" font-family="Helvetica,sans-Serif" font-size="11.00"> &#160;&#160;or pending_ssh/pending_web_reg (mid&#45;registration)</text>
<text text-anchor="start" x="1980.88" y="-724.55" font-family="Helvetica,sans-Serif" font-size="11.00">2. They become full users via email verification + billing</text>
<text text-anchor="start" x="1980.88" y="-708.55" font-family="Helvetica,sans-Serif" font-size="11.00">3. Pending shares auto&#45;resolve via resolvePendingShares()</text>
<text text-anchor="start" x="1980.88" y="-692.55" font-family="Helvetica,sans-Serif" font-size="11.00">4. Share links work for anonymous (visitor state)</text>
<text text-anchor="start" x="1980.88" y="-676.55" font-family="Helvetica,sans-Serif" font-size="11.00">5. Billing required only after 2026&#45;01&#45;06 (grandfathering)</text>
<text text-anchor="start" x="1980.88" y="-660.55" font-family="Helvetica,sans-Serif" font-size="11.00">6. Trial/free exemptions skip billing requirement</text>
<text text-anchor="start" x="1980.88" y="-644.55" font-family="Helvetica,sans-Serif" font-size="11.00">7. Disposable email users blocked from VM creation</text>
<text text-anchor="start" x="1980.88" y="-628.55" font-family="Helvetica,sans-Serif" font-size="11.00">8. Auth methods are additive (SSH + passkey + Discord)</text>
</g>
</g>
</svg>
