<svg version="1.1" xmlns="http://www.w3.org/2000/svg" viewBox="0 0 705.8984375 480.92578125" width="1411.796875" height="961.8515625">
  <!-- svg-source:excalidraw -->
  
  <defs>
    <style class="style-fonts">
      @font-face {
        font-family: "Virgil";
        src: url("https://unpkg.com/@excalidraw/excalidraw@0.14.2/dist/excalidraw-assets/Virgil.woff2");
      }
      @font-face {
        font-family: "Cascadia";
        src: url("https://unpkg.com/@excalidraw/excalidraw@0.14.2/dist/excalidraw-assets/Cascadia.woff2");
      }
    </style>
  </defs>
  <rect x="0" y="0" width="705.8984375" height="480.92578125" fill="#ffffff"></rect><g stroke-linecap="round" transform="translate(12.26953125 10) rotate(0 107.5 37)"><path d="M18.5 0 M18.5 0 C67.74 2.62, 114.67 -0.69, 196.5 0 M18.5 0 C87.48 -1.12, 156.73 -0.95, 196.5 0 M196.5 0 C208.54 1.65, 214.65 7.63, 215 18.5 M196.5 0 C209.33 1.56, 216.01 5.86, 215 18.5 M215 18.5 C216.43 25.49, 216.68 34.8, 215 55.5 M215 18.5 C214.31 30.54, 214.81 41.24, 215 55.5 M215 55.5 C214.47 69.39, 209.94 75.57, 196.5 74 M215 55.5 C214.99 69.42, 210.04 73.83, 196.5 74 M196.5 74 C143.67 74.8, 85.85 72.06, 18.5 74 M196.5 74 C158.25 72.19, 117.55 73.37, 18.5 74 M18.5 74 C6.16 75.47, -0.38 66.06, 0 55.5 M18.5 74 C5.42 73.5, -0.4 65.99, 0 55.5 M0 55.5 C0.94 46.45, -0.46 40.52, 0 18.5 M0 55.5 C0.14 45.08, -0.61 35.64, 0 18.5 M0 18.5 C0.66 6.51, 4.79 -1.84, 18.5 0 M0 18.5 C-0.21 8.02, 5.81 1.38, 18.5 0" stroke="#000000" stroke-width="1" fill="none"></path></g><g transform="translate(33.26953125 22) rotate(0 86.5 25)"><text x="86.5" y="18" font-family="Virgil, Segoe UI Emoji" font-size="20px" fill="#000000" text-anchor="middle" style="white-space: pre;" direction="ltr">vm, cowboy agent,</text><text x="86.5" y="43" font-family="Virgil, Segoe UI Emoji" font-size="20px" fill="#000000" text-anchor="middle" style="white-space: pre;" direction="ltr">no secrets</text></g><g stroke-linecap="round" transform="translate(10 200.453125) rotate(0 114.5 36.5)"><path d="M18.25 0 M18.25 0 C81.49 -1.98, 143.52 -1.27, 210.75 0 M18.25 0 C62.28 -1.63, 108.42 -2.51, 210.75 0 M210.75 0 C221.3 1.71, 227.27 5.11, 229 18.25 M210.75 0 C222.27 -0.92, 228.88 7.79, 229 18.25 M229 18.25 C230.54 31.61, 229.8 45.53, 229 54.75 M229 18.25 C228.91 27.51, 228.19 35.45, 229 54.75 M229 54.75 C228.7 67.71, 221.96 74.75, 210.75 73 M229 54.75 C230.78 66.7, 222.67 74.47, 210.75 73 M210.75 73 C147.25 74.3, 85.67 75.7, 18.25 73 M210.75 73 C141.18 73.88, 69.32 74.32, 18.25 73 M18.25 73 C5.1 73.43, 0.51 67.41, 0 54.75 M18.25 73 C6.45 72.06, 1.16 68.52, 0 54.75 M0 54.75 C1.3 44, 0.36 34.23, 0 18.25 M0 54.75 C0.02 43.71, -1.21 33.78, 0 18.25 M0 18.25 C-1.08 4.2, 4.35 -1.39, 18.25 0 M0 18.25 C0.2 5.71, 4.48 -1.82, 18.25 0" stroke="#000000" stroke-width="1" fill="none"></path></g><g transform="translate(36.5 211.953125) rotate(0 88 25)"><text x="88" y="18" font-family="Virgil, Segoe UI Emoji" font-size="20px" fill="#000000" text-anchor="middle" style="white-space: pre;" direction="ltr">http secrets </text><text x="88" y="43" font-family="Virgil, Segoe UI Emoji" font-size="20px" fill="#000000" text-anchor="middle" style="white-space: pre;" direction="ltr">management proxy</text></g><g stroke-linecap="round" transform="translate(17.9921875 397.94921875) rotate(0 106.365234375 36.48828125)"><path d="M18.24 0 M18.24 0 C87.6 -1.7, 154.1 -0.24, 194.49 0 M18.24 0 C71.34 0.12, 122.89 -0.37, 194.49 0 M194.49 0 C205.68 -1.14, 214.01 7.6, 212.73 18.24 M194.49 0 C206.38 -0.49, 212.07 4.62, 212.73 18.24 M212.73 18.24 C213.19 28.27, 212.75 41.25, 212.73 54.73 M212.73 18.24 C212.21 31.21, 212.56 43.18, 212.73 54.73 M212.73 54.73 C210.82 65.02, 207.31 74.16, 194.49 72.98 M212.73 54.73 C210.52 65.69, 205.23 70.94, 194.49 72.98 M194.49 72.98 C156.95 76.36, 120.5 75.1, 18.24 72.98 M194.49 72.98 C132.19 73.51, 70.26 75.02, 18.24 72.98 M18.24 72.98 C5.14 73.92, -1.85 65.86, 0 54.73 M18.24 72.98 C6.39 71.8, -1.41 65.09, 0 54.73 M0 54.73 C-0.44 45.05, -1.18 31.99, 0 18.24 M0 54.73 C0.81 46.55, -0.08 38.71, 0 18.24 M0 18.24 C0.12 4.85, 4.44 1.74, 18.24 0 M0 18.24 C-0.92 7.35, 6.51 0.62, 18.24 0" stroke="#000000" stroke-width="1" fill="none"></path></g><g transform="translate(32.357421875 421.9375) rotate(0 92 12.5)"><text x="92" y="18" font-family="Virgil, Segoe UI Emoji" font-size="20px" fill="#000000" text-anchor="middle" style="white-space: pre;" direction="ltr">third-party service</text></g><g stroke-linecap="round"><g transform="translate(120.50056590148046 85) rotate(0 0.4247535772968263 55.418242733580996)"><path d="M0.93 0.16 C0.88 18.71, 0.87 93.14, 0.62 111.64 M-0.04 -0.8 C-0.25 17.4, 0.39 91.75, 0.15 110.07" stroke="#000000" stroke-width="1" fill="none"></path></g><g transform="translate(120.50056590148046 85) rotate(0 0.4247535772968263 55.418242733580996)"><path d="M-9.82 83.4 C-4.4 91.94, -1.31 101.89, 0.68 110.11 M-9.27 81.26 C-7.29 87.87, -5.79 93.79, -0.66 110.49" stroke="#000000" stroke-width="1" fill="none"></path></g><g transform="translate(120.50056590148046 85) rotate(0 0.4247535772968263 55.418242733580996)"><path d="M10.7 83.41 C8.41 92.11, 3.79 102.06, 0.68 110.11 M11.25 81.27 C8.71 87.8, 5.69 93.72, -0.66 110.49" stroke="#000000" stroke-width="1" fill="none"></path></g></g><mask></mask><g stroke-linecap="round"><g transform="translate(121.83896727613103 279.671875) rotate(0 -0.14055199678227837 54.45872497670351)"><path d="M0.08 -0.72 C0.3 17.64, 0.71 91.27, 1.05 109.64 M-1.33 1.52 C-1.28 19.58, -0.6 90.19, -0.09 107.83" stroke="#000000" stroke-width="1" fill="none"></path></g><g transform="translate(121.83896727613103 279.671875) rotate(0 -0.14055199678227837 54.45872497670351)"><path d="M-12.05 79.23 C-6.95 88.86, -4.21 96.45, 1 109.59 M-10.92 79.89 C-9.34 85.11, -7.02 92.55, 0.27 107.27" stroke="#000000" stroke-width="1" fill="none"></path></g><g transform="translate(121.83896727613103 279.671875) rotate(0 -0.14055199678227837 54.45872497670351)"><path d="M8.47 78.87 C7.82 88.61, 4.81 96.3, 1 109.59 M9.6 79.52 C6.87 84.84, 4.88 92.36, 0.27 107.27" stroke="#000000" stroke-width="1" fill="none"></path></g></g><mask></mask><g transform="translate(155.8984375 110.25390625) rotate(0 270 24)"><text x="0" y="19" font-family="Cascadia, Segoe UI Emoji" font-size="20px" fill="#000000" text-anchor="start" style="white-space: pre;" direction="ltr">curl https://stripe.int.exe.xyz/v1/customers \</text><text x="0" y="43" font-family="Cascadia, Segoe UI Emoji" font-size="20px" fill="#000000" text-anchor="start" style="white-space: pre;" direction="ltr">  -d ...</text></g><g transform="translate(156.31640625 300.296875) rotate(0 246.5 36)"><text x="0" y="19" font-family="Cascadia, Segoe UI Emoji" font-size="20px" fill="#000000" text-anchor="start" style="white-space: pre;" direction="ltr">curl https://api.stripe.com/v1/customers \</text><text x="0" y="43" font-family="Cascadia, Segoe UI Emoji" font-size="20px" fill="#000000" text-anchor="start" style="white-space: pre;" direction="ltr">  -u "sk_test_BQokikJOvBiI2HlWgH4olfQ2:" \</text><text x="0" y="67" font-family="Cascadia, Segoe UI Emoji" font-size="20px" fill="#000000" text-anchor="start" style="white-space: pre;" direction="ltr">  -d ...</text></g></svg>