<svg version="1.1" xmlns="http://www.w3.org/2000/svg" viewBox="0 0 521.5 430" width="1043" height="860">
  <!-- svg-source:excalidraw -->
  
  <defs>
    <style class="style-fonts">
      @font-face {
        font-family: "Virgil";
        src: url("https://unpkg.com/@excalidraw/excalidraw@0.14.2/dist/excalidraw-assets/Virgil.woff2");
      }
      @font-face {
        font-family: "Cascadia";
        src: url("https://unpkg.com/@excalidraw/excalidraw@0.14.2/dist/excalidraw-assets/Cascadia.woff2");
      }
    </style>
  </defs>
  <rect x="0" y="0" width="521.5" height="430" fill="#ffffff"></rect><g stroke-linecap="round" transform="translate(158.5 10) rotate(0 99 34)"><path d="M2.68 6.31 C2.68 6.31, 2.68 6.31, 2.68 6.31 M2.68 6.31 C2.68 6.31, 2.68 6.31, 2.68 6.31 M1.11 14.21 C2.52 11.93, 3.77 10.95, 9.64 4.4 M1.11 14.21 C4.78 11.16, 8.06 6.66, 9.64 4.4 M1.5 19.86 C6.04 13.61, 12.64 9.88, 17.9 0.99 M1.5 19.86 C6.24 12.54, 13.23 6.33, 17.9 0.99 M1.24 26.25 C10.92 14.23, 20.14 7.02, 23.55 0.59 M1.24 26.25 C9.99 16.17, 18.42 5.16, 23.55 0.59 M1.64 31.9 C10.21 22.44, 17.92 12.31, 28.53 0.95 M1.64 31.9 C10.68 20.48, 20.54 9.98, 28.53 0.95 M1.37 38.29 C8.66 31.8, 16.36 19.92, 34.18 0.56 M1.37 38.29 C10.67 26.29, 21.13 14.7, 34.18 0.56 M1.11 44.69 C13.76 28.6, 27.4 13.18, 39.16 0.92 M1.11 44.69 C13.43 30.4, 25.73 16.29, 39.16 0.92 M1.51 50.34 C17.3 35.22, 31.05 18.92, 44.81 0.52 M1.51 50.34 C11.94 38.75, 22.39 27.42, 44.81 0.52 M1.9 55.98 C19.05 34.06, 39 13.04, 49.79 0.89 M1.9 55.98 C11.21 43.59, 22.35 33.56, 49.79 0.89 M3.61 60.11 C16.99 44.27, 33.53 26.91, 54.78 1.25 M3.61 60.11 C14.97 45.61, 25.94 33.55, 54.78 1.25 M5.32 64.25 C24.91 43.25, 43.6 18.91, 60.42 0.85 M5.32 64.25 C23.11 44.06, 41.11 22.69, 60.42 0.85 M8.33 66.87 C30.39 41.56, 52.98 15.83, 65.41 1.21 M8.33 66.87 C29.15 42.24, 50.54 19.09, 65.41 1.21 M12.01 68.74 C30.69 45.97, 51.86 22.86, 71.05 0.82 M12.01 68.74 C28.85 47.09, 47.88 26.61, 71.05 0.82 M17.65 68.35 C33.7 50.06, 53.39 30, 76.04 1.18 M17.65 68.35 C40 41.29, 63.93 15.66, 76.04 1.18 M22.64 68.71 C39.84 47.61, 60.33 27.06, 81.68 0.78 M22.64 68.71 C36.25 52.82, 50.51 37.95, 81.68 0.78 M28.28 68.31 C48.74 44.87, 71.55 20.1, 86.67 1.14 M28.28 68.31 C46.87 45.79, 67.18 23.45, 86.67 1.14 M33.27 68.67 C50.9 52.67, 66.2 31.6, 92.31 0.75 M33.27 68.67 C47.44 52.6, 61.67 37.02, 92.31 0.75 M38.91 68.28 C57.44 44.7, 77.74 24.95, 97.3 1.11 M38.91 68.28 C54.24 51.1, 68.41 34.45, 97.3 1.11 M43.9 68.64 C60.57 51.35, 75.59 34.53, 102.94 0.71 M43.9 68.64 C64.3 46.32, 84.41 23.53, 102.94 0.71 M49.54 68.24 C61.71 54.67, 77.35 39.67, 107.93 1.07 M49.54 68.24 C65.5 48.37, 81.81 28.8, 107.93 1.07 M54.53 68.6 C72.08 48.74, 93.41 25.05, 113.57 0.68 M54.53 68.6 C78.34 41.49, 101.27 14.12, 113.57 0.68 M60.17 68.21 C75.01 51.4, 91.41 33.67, 118.56 1.04 M60.17 68.21 C74.82 52.16, 88.65 36.72, 118.56 1.04 M65.16 68.57 C80.61 51.82, 93.06 36.06, 124.2 0.64 M65.16 68.57 C85.91 43.97, 105.29 21.56, 124.2 0.64 M70.8 68.17 C90.94 46.62, 113.71 21.1, 129.19 1 M70.8 68.17 C91.13 44.57, 113.98 18.9, 129.19 1 M75.79 68.53 C89.9 53.25, 104.2 33.64, 134.83 0.61 M75.79 68.53 C97.94 42.87, 119.65 18.03, 134.83 0.61 M81.43 68.14 C104.32 41.02, 127.65 17.26, 139.82 0.97 M81.43 68.14 C104.48 40.89, 128.56 15.35, 139.82 0.97 M86.42 68.5 C99.94 53.14, 113.47 34.74, 145.47 0.57 M86.42 68.5 C105.94 45.33, 126.14 22.64, 145.47 0.57 M92.06 68.1 C110.82 46.36, 129.47 23.28, 150.45 0.93 M92.06 68.1 C111.33 46.22, 130.89 24.21, 150.45 0.93 M97.05 68.46 C116.75 44.52, 137.43 22.29, 156.1 0.54 M97.05 68.46 C118.03 43.23, 140.65 17.44, 156.1 0.54 M102.04 68.82 C123.9 43.58, 145.51 19.95, 161.08 0.9 M102.04 68.82 C124.88 43.91, 147.81 17.99, 161.08 0.9 M107.68 68.43 C127.94 47.41, 146.94 25.66, 166.73 0.51 M107.68 68.43 C122.17 52.85, 135.03 35.8, 166.73 0.51 M112.67 68.79 C131.7 44.93, 152.71 21.88, 171.71 0.87 M112.67 68.79 C131.22 49.16, 146.83 28.08, 171.71 0.87 M118.31 68.4 C138.7 41.9, 161.94 18.03, 176.7 1.23 M118.31 68.4 C141.01 42.8, 162.65 18.7, 176.7 1.23 M123.3 68.76 C139.4 48.81, 157.79 27.75, 182.34 0.83 M123.3 68.76 C137.47 52.8, 150.41 37.39, 182.34 0.83 M128.94 68.36 C147.07 48.8, 164.47 24.05, 186.67 1.95 M128.94 68.36 C146.88 48.97, 163.8 27.41, 186.67 1.95 M133.93 68.72 C154.13 44.9, 176.63 23.22, 191 3.06 M133.93 68.72 C146.45 52.46, 159.88 37.77, 191 3.06 M139.57 68.33 C153.65 51.18, 166.24 36.67, 194.68 4.93 M139.57 68.33 C162.05 43.73, 182.24 18.7, 194.68 4.93 M144.56 68.69 C157.6 53.79, 169.46 39.05, 196.39 9.06 M144.56 68.69 C166.01 45.75, 186.3 21.97, 196.39 9.06 M150.2 68.29 C162.39 52.46, 174.31 41.8, 198.09 13.2 M150.2 68.29 C163.56 54.82, 174.76 40.73, 198.09 13.2 M155.19 68.65 C171.66 49.99, 184.93 33.55, 197.83 19.6 M155.19 68.65 C167.8 55.59, 178.81 39.92, 197.83 19.6 M160.83 68.26 C170.72 54.92, 181.36 40.65, 197.57 25.99 M160.83 68.26 C169.3 59.14, 175.23 50.84, 197.57 25.99 M165.82 68.62 C174.42 59, 185.42 45.03, 197.96 31.64 M165.82 68.62 C176.68 56.82, 185.42 44.96, 197.96 31.64 M171.46 68.22 C180.45 58.79, 191.23 45.75, 197.7 38.03 M171.46 68.22 C182.54 57.14, 192.89 44.01, 197.7 38.03 M176.45 68.58 C182.47 59.62, 188.61 51.22, 197.44 44.43 M176.45 68.58 C185.53 58.93, 192.98 50.64, 197.44 44.43 M181.43 68.94 C184.48 63.2, 191.28 60.08, 197.18 50.83 M181.43 68.94 C184.07 65.24, 188.66 60.07, 197.18 50.83 M188.39 67.04 C190.95 64.26, 195.95 60.4, 197.57 56.47 M188.39 67.04 C190.43 64.36, 192.73 61.77, 197.57 56.47" stroke="#82c91e" stroke-width="0.5" fill="none"></path><path d="M17 0 M17 0 C57.94 0.06, 97.46 0.48, 181 0 M17 0 C81.14 -1.54, 144.78 -2.16, 181 0 M181 0 C191.48 0.84, 199.08 4.42, 198 17 M181 0 C193.99 -0.25, 197.12 5.54, 198 17 M198 17 C199.32 25.93, 196.76 37.01, 198 51 M198 17 C197.96 24.2, 197.76 32.43, 198 51 M198 51 C197.45 60.88, 191.87 66.79, 181 68 M198 51 C196.41 61.84, 190.72 65.96, 181 68 M181 68 C136.35 65.04, 88.37 64.55, 17 68 M181 68 C133.85 67.42, 86.96 66.63, 17 68 M17 68 C4.22 69.6, -0.49 63.46, 0 51 M17 68 C6.03 69.23, 0.32 64.2, 0 51 M0 51 C-1.48 40.26, 0.28 29.86, 0 17 M0 51 C0.17 39.81, 0.98 26.94, 0 17 M0 17 C-0.9 4.59, 6.06 0.17, 17 0 M0 17 C-2.06 6.43, 5.35 1.11, 17 0" stroke="#000000" stroke-width="1" fill="none"></path></g><g transform="translate(223 31.5) rotate(0 34.5 12.5)"><text x="34.5" y="18" font-family="Virgil, Segoe UI Emoji" font-size="20px" fill="#000000" text-anchor="middle" style="white-space: pre;" direction="ltr">Prompt</text></g><g stroke-linecap="round" transform="translate(163.5 128) rotate(0 99 34)"><path d="M2.68 6.31 C2.68 6.31, 2.68 6.31, 2.68 6.31 M2.68 6.31 C2.68 6.31, 2.68 6.31, 2.68 6.31 M1.11 14.21 C5.02 10.56, 7.52 6.45, 9.64 4.4 M1.11 14.21 C3.59 11.86, 5.38 9.22, 9.64 4.4 M1.5 19.86 C5.32 13.6, 10.02 8.76, 17.9 0.99 M1.5 19.86 C4.6 15.51, 9.98 11.4, 17.9 0.99 M1.24 26.25 C6.59 20.43, 9.11 16.54, 23.55 0.59 M1.24 26.25 C6.51 20.49, 10.24 15.23, 23.55 0.59 M1.64 31.9 C7.47 21.87, 17.13 12.04, 28.53 0.95 M1.64 31.9 C11.68 21.9, 21.08 10.88, 28.53 0.95 M1.37 38.29 C14.73 24.85, 27.15 11.02, 34.18 0.56 M1.37 38.29 C12.69 24.27, 23.92 11.66, 34.18 0.56 M1.11 44.69 C12.73 30.93, 22.17 20.28, 39.16 0.92 M1.11 44.69 C15.49 27.67, 30.28 12.19, 39.16 0.92 M1.51 50.34 C16.85 34.79, 27.45 17.88, 44.81 0.52 M1.51 50.34 C17.39 32.68, 32.91 14.6, 44.81 0.52 M1.9 55.98 C16.26 39.16, 31.94 22.34, 49.79 0.89 M1.9 55.98 C17.71 37.91, 33.04 20.06, 49.79 0.89 M3.61 60.11 C22.22 39.6, 37.56 20.72, 54.78 1.25 M3.61 60.11 C22.21 38.68, 39.89 18.58, 54.78 1.25 M5.32 64.25 C16.95 47.53, 28.83 34.41, 60.42 0.85 M5.32 64.25 C20.45 46.6, 36.02 30.69, 60.42 0.85 M8.33 66.87 C28.03 42.47, 46.87 21.16, 65.41 1.21 M8.33 66.87 C29.16 42.28, 50.25 19.17, 65.41 1.21 M12.01 68.74 C31 45.21, 51.21 23.43, 71.05 0.82 M12.01 68.74 C33.1 44.35, 53.67 21.35, 71.05 0.82 M17.65 68.35 C37.08 42.26, 58.6 19.62, 76.04 1.18 M17.65 68.35 C32.16 52.68, 48.08 35.69, 76.04 1.18 M22.64 68.71 C33.8 54.83, 47.34 40.67, 81.68 0.78 M22.64 68.71 C44.65 44.15, 64.42 20.33, 81.68 0.78 M28.28 68.31 C50.18 46.44, 68.68 22.64, 86.67 1.14 M28.28 68.31 C49.46 46.02, 68.86 22.96, 86.67 1.14 M33.27 68.67 C53.99 44.04, 78.36 18.49, 92.31 0.75 M33.27 68.67 C54.89 43.24, 77.57 19.66, 92.31 0.75 M38.91 68.28 C62.34 41.61, 82.66 15.38, 97.3 1.11 M38.91 68.28 C51.35 52.02, 66.46 37.65, 97.3 1.11 M43.9 68.64 C62.68 48.82, 80.23 26.71, 102.94 0.71 M43.9 68.64 C60.79 49.1, 78.45 30.1, 102.94 0.71 M49.54 68.24 C69.65 48.46, 87.33 27.23, 107.93 1.07 M49.54 68.24 C72.47 44.56, 92.9 19.22, 107.93 1.07 M54.53 68.6 C67.36 55.33, 76.85 39.31, 113.57 0.68 M54.53 68.6 C71.95 46.87, 92.52 26.3, 113.57 0.68 M60.17 68.21 C78.02 44.62, 99.08 25.88, 118.56 1.04 M60.17 68.21 C76.46 48.76, 94.53 29.36, 118.56 1.04 M65.16 68.57 C75.3 54.74, 88.2 39.47, 124.2 0.64 M65.16 68.57 C81.88 48.42, 99.18 28.55, 124.2 0.64 M70.8 68.17 C86.91 46.8, 104.47 27.7, 129.19 1 M70.8 68.17 C91.84 44.41, 112.88 20.46, 129.19 1 M75.79 68.53 C85.79 53.52, 98.79 39.54, 134.83 0.61 M75.79 68.53 C96.01 44.07, 117.31 19.74, 134.83 0.61 M81.43 68.14 C99.3 47.27, 117.63 27.39, 139.82 0.97 M81.43 68.14 C93.13 52.76, 106.47 37.92, 139.82 0.97 M86.42 68.5 C109.54 39.99, 132.47 14.78, 145.47 0.57 M86.42 68.5 C100.28 52.46, 114.33 36.05, 145.47 0.57 M92.06 68.1 C109.99 45.6, 132.86 23.17, 150.45 0.93 M92.06 68.1 C113.73 42.87, 137.03 17.04, 150.45 0.93 M97.05 68.46 C117.69 46.58, 138.39 21.55, 156.1 0.54 M97.05 68.46 C109.1 53.57, 121.45 39.52, 156.1 0.54 M102.04 68.82 C118.55 50.37, 137.76 26.23, 161.08 0.9 M102.04 68.82 C113.86 52.74, 126.83 38.28, 161.08 0.9 M107.68 68.43 C125.65 46.76, 145.54 23.16, 166.73 0.51 M107.68 68.43 C129.21 43.67, 150.1 19.88, 166.73 0.51 M112.67 68.79 C128.06 52.16, 142.88 33.21, 171.71 0.87 M112.67 68.79 C133.56 44.29, 155.37 19.61, 171.71 0.87 M118.31 68.4 C129.01 55.48, 143.64 39.99, 176.7 1.23 M118.31 68.4 C131.89 51.63, 146.34 36.13, 176.7 1.23 M123.3 68.76 C146.6 40.78, 168.55 13.9, 182.34 0.83 M123.3 68.76 C139.72 49.07, 156.67 28.91, 182.34 0.83 M128.94 68.36 C146.64 48.52, 165.54 24.58, 186.67 1.95 M128.94 68.36 C146.09 49.24, 163.1 29.28, 186.67 1.95 M133.93 68.72 C147.91 52.64, 164.91 34.51, 191 3.06 M133.93 68.72 C155.61 45, 175.09 20.93, 191 3.06 M139.57 68.33 C159.86 45.8, 182.79 19.33, 194.68 4.93 M139.57 68.33 C160.52 43.49, 182.32 17.23, 194.68 4.93 M144.56 68.69 C161.54 50.12, 180.93 27.93, 196.39 9.06 M144.56 68.69 C156.15 55.31, 166.45 42.34, 196.39 9.06 M150.2 68.29 C160.36 57.71, 170.97 42.05, 198.09 13.2 M150.2 68.29 C164.05 51.35, 179.26 35.73, 198.09 13.2 M155.19 68.65 C164.77 59.45, 173.43 46, 197.83 19.6 M155.19 68.65 C167.76 53.31, 181.75 38.99, 197.83 19.6 M160.83 68.26 C167.65 60.13, 178.51 50.58, 197.57 25.99 M160.83 68.26 C168.13 58.61, 175.67 49.26, 197.57 25.99 M165.82 68.62 C174.21 61.21, 181 50.65, 197.96 31.64 M165.82 68.62 C177.96 53.52, 190.8 40.26, 197.96 31.64 M171.46 68.22 C179.14 56.79, 189.22 49.17, 197.7 38.03 M171.46 68.22 C176.05 61.72, 182.83 56.78, 197.7 38.03 M176.45 68.58 C182.78 60.27, 189.74 52.65, 197.44 44.43 M176.45 68.58 C182.78 62.02, 188.61 54.84, 197.44 44.43 M181.43 68.94 C188.63 63.35, 192.26 56.88, 197.18 50.83 M181.43 68.94 C185.71 64.04, 189.56 60.34, 197.18 50.83 M188.39 67.04 C191.59 63.61, 193.99 60.42, 197.57 56.47 M188.39 67.04 C189.92 64.33, 192.82 61.67, 197.57 56.47" stroke="#fab005" stroke-width="0.5" fill="none"></path><path d="M17 0 M17 0 C65.8 -0.01, 116.3 -0.93, 181 0 M17 0 C62.45 0.78, 107.46 1.87, 181 0 M181 0 C190.84 -1.67, 196.02 5.44, 198 17 M181 0 C190.62 -1.85, 198.48 7.36, 198 17 M198 17 C199.58 28.99, 199.11 42.28, 198 51 M198 17 C198.23 28.04, 198.89 40.13, 198 51 M198 51 C198.07 62.29, 192.82 68.85, 181 68 M198 51 C197.52 61.7, 192.56 69.05, 181 68 M181 68 C115.84 67.66, 53 65.47, 17 68 M181 68 C126.99 69.38, 71.17 68.05, 17 68 M17 68 C4.54 68.77, -0.05 62.11, 0 51 M17 68 C5.91 69.13, -0.71 63.35, 0 51 M0 51 C-0.84 39.54, -0.45 27.92, 0 17 M0 51 C-0.15 37.99, 0.3 24.51, 0 17 M0 17 C-1.43 4.62, 5.99 0.71, 17 0 M0 17 C0.08 7.5, 6.71 -1.16, 17 0" stroke="#000000" stroke-width="1" fill="none"></path></g><g transform="translate(200 149.5) rotate(0 62.5 12.5)"><text x="62.5" y="18" font-family="Virgil, Segoe UI Emoji" font-size="20px" fill="#000000" text-anchor="middle" style="white-space: pre;" direction="ltr">Agentic Loop</text></g><g stroke-linecap="round" transform="translate(32.5 244) rotate(0 99 34)"><path d="M2.68 6.31 C2.68 6.31, 2.68 6.31, 2.68 6.31 M2.68 6.31 C2.68 6.31, 2.68 6.31, 2.68 6.31 M1.11 14.21 C4.62 11.83, 6.82 9.02, 9.64 4.4 M1.11 14.21 C3.65 11.4, 6.63 8.23, 9.64 4.4 M1.5 19.86 C6.76 16.11, 10.42 10.04, 17.9 0.99 M1.5 19.86 C6.31 15.37, 9.77 10.36, 17.9 0.99 M1.24 26.25 C8.22 20.1, 13.85 13.83, 23.55 0.59 M1.24 26.25 C7.06 18.71, 15.21 10.69, 23.55 0.59 M1.64 31.9 C7.21 25.01, 12.83 18.63, 28.53 0.95 M1.64 31.9 C8.24 25.39, 14.2 17.35, 28.53 0.95 M1.37 38.29 C10.32 29.92, 15.01 20.93, 34.18 0.56 M1.37 38.29 C8.76 29.47, 14.83 21.41, 34.18 0.56 M1.11 44.69 C11.62 35.29, 21.53 25, 39.16 0.92 M1.11 44.69 C12.28 32.27, 22.55 18.68, 39.16 0.92 M1.51 50.34 C9.99 39.03, 18.83 28.33, 44.81 0.52 M1.51 50.34 C17.01 30.09, 35.21 10.6, 44.81 0.52 M1.9 55.98 C19.01 38.15, 32.53 21.27, 49.79 0.89 M1.9 55.98 C15.15 40.97, 26.77 27.93, 49.79 0.89 M3.61 60.11 C21.38 39.74, 38 22.85, 54.78 1.25 M3.61 60.11 C23.46 37.96, 42.44 14.68, 54.78 1.25 M5.32 64.25 C26.5 39.24, 46.12 16.7, 60.42 0.85 M5.32 64.25 C20.04 47.12, 34 31.32, 60.42 0.85 M8.33 66.87 C21.53 51.32, 37.21 32.66, 65.41 1.21 M8.33 66.87 C20.11 53.63, 32.94 39.14, 65.41 1.21 M12.01 68.74 C34 42.07, 54.67 16.31, 71.05 0.82 M12.01 68.74 C26.57 51.33, 40.76 35.82, 71.05 0.82 M17.65 68.35 C40.27 41.88, 58.85 20.24, 76.04 1.18 M17.65 68.35 C40.07 42.07, 63.96 15.7, 76.04 1.18 M22.64 68.71 C43.53 47.25, 61.98 21.36, 81.68 0.78 M22.64 68.71 C36.57 52.62, 50.98 35.18, 81.68 0.78 M28.28 68.31 C39.59 52.95, 51.53 38.4, 86.67 1.14 M28.28 68.31 C42.65 51.39, 59.87 31.78, 86.67 1.14 M33.27 68.67 C54.15 46.82, 75.01 20.8, 92.31 0.75 M33.27 68.67 C53.86 46.21, 73.45 21.71, 92.31 0.75 M38.91 68.28 C55.31 49.76, 67.38 33.84, 97.3 1.11 M38.91 68.28 C52.72 51.86, 69.06 33.42, 97.3 1.11 M43.9 68.64 C59.43 53.27, 74.36 35.56, 102.94 0.71 M43.9 68.64 C60.28 50.35, 76.02 30.89, 102.94 0.71 M49.54 68.24 C66.35 47.98, 86.59 24.64, 107.93 1.07 M49.54 68.24 C64.55 53.26, 77.64 36.6, 107.93 1.07 M54.53 68.6 C65.72 55.76, 77.29 40.25, 113.57 0.68 M54.53 68.6 C71.56 50.6, 87.75 30.06, 113.57 0.68 M60.17 68.21 C80.52 46.34, 98.27 22.69, 118.56 1.04 M60.17 68.21 C81.57 42.83, 102.2 19.15, 118.56 1.04 M65.16 68.57 C84.5 45.15, 106.51 19.5, 124.2 0.64 M65.16 68.57 C77.87 54.42, 90.2 39.4, 124.2 0.64 M70.8 68.17 C91.82 44.27, 117.77 15.33, 129.19 1 M70.8 68.17 C84.93 53.7, 97.7 36.84, 129.19 1 M75.79 68.53 C98.1 44.51, 116.31 21.5, 134.83 0.61 M75.79 68.53 C88.04 53.34, 101.11 39.32, 134.83 0.61 M81.43 68.14 C101.07 47.64, 119.91 25.98, 139.82 0.97 M81.43 68.14 C97.92 47.78, 117.57 26.37, 139.82 0.97 M86.42 68.5 C106.75 44.66, 130.55 17.72, 145.47 0.57 M86.42 68.5 C104.57 47.66, 121.75 28.36, 145.47 0.57 M92.06 68.1 C108.32 49.07, 126.46 30.13, 150.45 0.93 M92.06 68.1 C111.94 47.16, 130.29 24.06, 150.45 0.93 M97.05 68.46 C117.38 44.22, 136.34 21.24, 156.1 0.54 M97.05 68.46 C114.31 49.64, 131.62 28.34, 156.1 0.54 M102.04 68.82 C123.69 43.83, 141.83 21.88, 161.08 0.9 M102.04 68.82 C120.33 49.06, 135.8 29.59, 161.08 0.9 M107.68 68.43 C129.83 46.39, 149.81 20.39, 166.73 0.51 M107.68 68.43 C129.37 44.42, 151 20.13, 166.73 0.51 M112.67 68.79 C133.47 42.44, 158.62 16.96, 171.71 0.87 M112.67 68.79 C125.9 52.38, 140.57 36.77, 171.71 0.87 M118.31 68.4 C140.88 43.21, 164.08 16.87, 176.7 1.23 M118.31 68.4 C132.24 50.88, 148.44 33.49, 176.7 1.23 M123.3 68.76 C144.76 45.7, 166.85 19.45, 182.34 0.83 M123.3 68.76 C139.67 49.17, 157.63 27.57, 182.34 0.83 M128.94 68.36 C148.9 43.17, 174.66 16.5, 186.67 1.95 M128.94 68.36 C143.54 52.69, 158.27 35.11, 186.67 1.95 M133.93 68.72 C157.34 43.32, 176.42 18.06, 191 3.06 M133.93 68.72 C148.5 51.44, 163.2 35.62, 191 3.06 M139.57 68.33 C150.36 54.08, 163.1 37.14, 194.68 4.93 M139.57 68.33 C153.71 50.87, 168.04 34.79, 194.68 4.93 M144.56 68.69 C158.6 51.18, 174.33 36.44, 196.39 9.06 M144.56 68.69 C161.88 50.12, 179.04 30.6, 196.39 9.06 M150.2 68.29 C165.4 48.24, 184.11 31.17, 198.09 13.2 M150.2 68.29 C160.79 55.21, 172.63 42.75, 198.09 13.2 M155.19 68.65 C164.27 55.63, 175.23 42.4, 197.83 19.6 M155.19 68.65 C165.79 56.05, 176.12 43.75, 197.83 19.6 M160.83 68.26 C170.82 55.41, 179.64 44.67, 197.57 25.99 M160.83 68.26 C169 57.44, 177.3 48.34, 197.57 25.99 M165.82 68.62 C174.85 61.54, 180.52 50.41, 197.96 31.64 M165.82 68.62 C178.29 54.92, 190.49 41.14, 197.96 31.64 M171.46 68.22 C178.28 58.47, 188.39 49.29, 197.7 38.03 M171.46 68.22 C180.61 58.41, 190.41 46.85, 197.7 38.03 M176.45 68.58 C182.1 60.59, 187.95 55.94, 197.44 44.43 M176.45 68.58 C183.07 59.31, 190.35 52.03, 197.44 44.43 M181.43 68.94 C187.11 62.92, 191.7 59.49, 197.18 50.83 M181.43 68.94 C187.07 62.86, 192.69 57.86, 197.18 50.83 M188.39 67.04 C191.35 64.07, 193.61 58.88, 197.57 56.47 M188.39 67.04 C190.67 64.95, 193.24 61.42, 197.57 56.47" stroke="#82c91e" stroke-width="0.5" fill="none"></path><path d="M17 0 M17 0 C79.2 -0.19, 143.14 -0.99, 181 0 M17 0 C52.91 -1.03, 88.05 -1.56, 181 0 M181 0 C190.55 1.97, 197.45 4.26, 198 17 M181 0 C191.48 0.3, 196.45 4.15, 198 17 M198 17 C195.99 29.11, 198.38 42.97, 198 51 M198 17 C197.99 28.56, 196.87 42.01, 198 51 M198 51 C197.83 61.47, 192.91 67.75, 181 68 M198 51 C200.08 63.19, 193.37 69.97, 181 68 M181 68 C117.86 64.75, 51.62 68.1, 17 68 M181 68 C120.83 68.44, 59.91 68.88, 17 68 M17 68 C5.47 66.1, -0.11 60.63, 0 51 M17 68 C4.69 68.19, 2.14 63.11, 0 51 M0 51 C-0.11 44.42, -0.72 37.03, 0 17 M0 51 C-0.83 36.83, -0.82 25.18, 0 17 M0 17 C0.48 6.98, 7.66 0.68, 17 0 M0 17 C1.92 7.35, 7.01 -0.57, 17 0" stroke="#000000" stroke-width="1" fill="none"></path></g><g transform="translate(106 265.5) rotate(0 25.5 12.5)"><text x="25.5" y="18" font-family="Virgil, Segoe UI Emoji" font-size="20px" fill="#000000" text-anchor="middle" style="white-space: pre;" direction="ltr">Test</text></g><g stroke-linecap="round" transform="translate(313.5 239) rotate(0 99 34)"><path d="M2.68 6.31 C2.68 6.31, 2.68 6.31, 2.68 6.31 M2.68 6.31 C2.68 6.31, 2.68 6.31, 2.68 6.31 M1.11 14.21 C2.34 11.64, 3.93 9.46, 9.64 4.4 M1.11 14.21 C3.75 9.96, 7.98 6.03, 9.64 4.4 M1.5 19.86 C8.16 14.07, 11.29 9.14, 17.9 0.99 M1.5 19.86 C6.3 14.39, 9.69 10.82, 17.9 0.99 M1.24 26.25 C9.46 16.91, 16.46 11.08, 23.55 0.59 M1.24 26.25 C10.33 16.82, 18.42 6.08, 23.55 0.59 M1.64 31.9 C12.64 18.94, 21.96 8.25, 28.53 0.95 M1.64 31.9 C9.23 23.47, 15.83 16.13, 28.53 0.95 M1.37 38.29 C8.36 29.58, 17.93 17.94, 34.18 0.56 M1.37 38.29 C8.18 31.1, 15.8 22.61, 34.18 0.56 M1.11 44.69 C15.2 27.23, 27.91 10.63, 39.16 0.92 M1.11 44.69 C10.55 33.25, 19.56 23.7, 39.16 0.92 M1.51 50.34 C18.65 30.31, 31.72 15.01, 44.81 0.52 M1.51 50.34 C17.89 30.97, 35.85 11.42, 44.81 0.52 M1.9 55.98 C18.91 38.8, 33.58 17.24, 49.79 0.89 M1.9 55.98 C13.24 43.06, 24.94 28.74, 49.79 0.89 M3.61 60.11 C13.48 46.52, 23.92 33.7, 54.78 1.25 M3.61 60.11 C16.09 45.38, 31.39 27.99, 54.78 1.25 M5.32 64.25 C24.8 43.96, 44.3 19.51, 60.42 0.85 M5.32 64.25 C24.54 43.34, 42.8 20.38, 60.42 0.85 M8.33 66.87 C24.39 48.74, 36.13 33.2, 65.41 1.21 M8.33 66.87 C21.8 50.83, 37.81 32.78, 65.41 1.21 M12.01 68.74 C27.54 53.38, 42.47 35.66, 71.05 0.82 M12.01 68.74 C28.39 50.45, 44.13 30.99, 71.05 0.82 M17.65 68.35 C34.46 48.08, 54.7 24.75, 76.04 1.18 M17.65 68.35 C32.66 53.36, 45.75 36.71, 76.04 1.18 M22.64 68.71 C33.83 55.86, 45.4 40.36, 81.68 0.78 M22.64 68.71 C39.67 50.7, 55.86 30.16, 81.68 0.78 M28.28 68.31 C48.63 46.44, 66.38 22.79, 86.67 1.14 M28.28 68.31 C49.68 42.94, 70.31 19.25, 86.67 1.14 M33.27 68.67 C52.61 45.26, 74.62 19.61, 92.31 0.75 M33.27 68.67 C45.98 54.52, 58.31 39.5, 92.31 0.75 M38.91 68.28 C59.93 44.38, 85.88 15.44, 97.3 1.11 M38.91 68.28 C53.04 53.8, 65.81 36.95, 97.3 1.11 M43.9 68.64 C66.21 44.61, 84.42 21.6, 102.94 0.71 M43.9 68.64 C56.15 53.44, 69.22 39.42, 102.94 0.71 M49.54 68.24 C69.18 47.75, 88.02 26.08, 107.93 1.07 M49.54 68.24 C66.03 47.89, 85.68 26.47, 107.93 1.07 M54.53 68.6 C74.86 44.76, 98.65 17.82, 113.57 0.68 M54.53 68.6 C72.68 47.76, 89.86 28.46, 113.57 0.68 M60.17 68.21 C76.43 49.18, 94.57 30.24, 118.56 1.04 M60.17 68.21 C80.05 47.26, 98.4 24.16, 118.56 1.04 M65.16 68.57 C85.49 44.32, 104.45 21.34, 124.2 0.64 M65.16 68.57 C82.42 49.74, 99.73 28.44, 124.2 0.64 M70.8 68.17 C92.23 43.45, 110.14 21.76, 129.19 1 M70.8 68.17 C88.9 48.63, 104.18 29.37, 129.19 1 M75.79 68.53 C97.94 46.49, 117.92 20.49, 134.83 0.61 M75.79 68.53 C97.48 44.52, 119.11 20.24, 134.83 0.61 M81.43 68.14 C101.99 42.08, 126.87 16.89, 139.82 0.97 M81.43 68.14 C94.51 51.9, 109.02 36.47, 139.82 0.97 M86.42 68.5 C109.24 43.03, 132.69 16.4, 145.47 0.57 M86.42 68.5 C100.52 50.78, 116.89 33.2, 145.47 0.57 M92.06 68.1 C113.29 45.32, 135.14 19.34, 150.45 0.93 M92.06 68.1 C108.25 48.75, 126.01 27.36, 150.45 0.93 M97.05 68.46 C117.5 42.68, 143.76 15.44, 156.1 0.54 M97.05 68.46 C111.99 52.42, 127.07 34.45, 156.1 0.54 M102.04 68.82 C126.19 42.57, 146.01 16.47, 161.08 0.9 M102.04 68.82 C117.1 50.97, 132.29 34.6, 161.08 0.9 M107.68 68.43 C119.37 53.12, 133.02 35.13, 166.73 0.51 M107.68 68.43 C122.82 49.77, 138.16 32.52, 166.73 0.51 M112.67 68.79 C128.72 49, 146.45 31.96, 171.71 0.87 M112.67 68.79 C132.32 47.51, 151.86 25.28, 171.71 0.87 M118.31 68.4 C137.14 44.14, 159.47 22.9, 176.7 1.23 M118.31 68.4 C131.31 52.46, 145.64 37.13, 176.7 1.23 M123.3 68.76 C136.42 51.09, 151.53 33.08, 182.34 0.83 M123.3 68.76 C137.95 51.57, 152.38 34.55, 182.34 0.83 M128.94 68.36 C144.89 48.98, 159.52 31.55, 186.67 1.95 M128.94 68.36 C142.21 51.84, 155.39 37.13, 186.67 1.95 M133.93 68.72 C148.81 55.12, 160.11 37.52, 191 3.06 M133.93 68.72 C155.94 43.98, 177.62 19.3, 191 3.06 M139.57 68.33 C155.89 47.77, 175.18 28.03, 194.68 4.93 M139.57 68.33 C158.68 47.22, 178.36 24.29, 194.68 4.93 M144.56 68.69 C158.26 51.58, 171.98 37.89, 196.39 9.06 M144.56 68.69 C161.69 46.88, 179.7 27.25, 196.39 9.06 M150.2 68.29 C165.48 51.24, 179.62 36.82, 198.09 13.2 M150.2 68.29 C166.31 50.14, 182.51 32.96, 198.09 13.2 M155.19 68.65 C169.51 52.92, 182.73 34.01, 197.83 19.6 M155.19 68.65 C165.7 57.15, 176.68 43.71, 197.83 19.6 M160.83 68.26 C174.66 51.42, 190.11 34.51, 197.57 25.99 M160.83 68.26 C169.2 58.73, 176.63 49.01, 197.57 25.99 M165.82 68.62 C170.83 60.16, 179.28 51.75, 197.96 31.64 M165.82 68.62 C172.27 59.16, 179.95 51.7, 197.96 31.64 M171.46 68.22 C177.74 60.81, 183.65 50.33, 197.7 38.03 M171.46 68.22 C179.5 59.33, 187.83 50.94, 197.7 38.03 M176.45 68.58 C183.8 58.14, 192.53 50.03, 197.44 44.43 M176.45 68.58 C183.02 61.21, 189.86 52.14, 197.44 44.43 M181.43 68.94 C182.93 64.97, 186.5 60.35, 197.18 50.83 M181.43 68.94 C185.36 62.97, 191.02 57.6, 197.18 50.83 M188.39 67.04 C192.89 63.85, 195.17 58.61, 197.57 56.47 M188.39 67.04 C190.49 65.3, 192.89 62.94, 197.57 56.47" stroke="#82c91e" stroke-width="0.5" fill="none"></path><path d="M17 0 M17 0 C79.37 -1.13, 144.4 0.21, 181 0 M17 0 C62.53 1.12, 106 1.94, 181 0 M181 0 C193.83 0.07, 199.88 6.73, 198 17 M181 0 C194.19 -1.61, 197.31 3.58, 198 17 M198 17 C200.27 25.87, 196.36 31, 198 51 M198 17 C198.69 26.2, 197.5 33.67, 198 51 M198 51 C199.17 60.37, 193.29 66.56, 181 68 M198 51 C197.87 61.84, 192.41 67.34, 181 68 M181 68 C137.85 68.42, 95.55 69.57, 17 68 M181 68 C130.8 68.08, 80.79 68.98, 17 68 M17 68 C7.38 66.44, -1.32 61.95, 0 51 M17 68 C6.12 65.9, -1.32 60.99, 0 51 M0 51 C-1.19 39.91, 1.47 25.95, 0 17 M0 51 C-0.3 40.87, 0.16 31.54, 0 17 M0 17 C-1.89 7.25, 4.99 1.53, 17 0 M0 17 C0.2 7.05, 6.86 1.36, 17 0" stroke="#000000" stroke-width="1" fill="none"></path></g><g transform="translate(351 248) rotate(0 61.5 25)"><text x="61.5" y="18" font-family="Virgil, Segoe UI Emoji" font-size="20px" fill="#000000" text-anchor="middle" style="white-space: pre;" direction="ltr">Review</text><text x="61.5" y="43" font-family="Virgil, Segoe UI Emoji" font-size="20px" fill="#000000" text-anchor="middle" style="white-space: pre;" direction="ltr">(Read Code)</text></g><g stroke-linecap="round" transform="translate(157.5 352) rotate(0 99 34)"><path d="M2.68 6.31 C2.68 6.31, 2.68 6.31, 2.68 6.31 M2.68 6.31 C2.68 6.31, 2.68 6.31, 2.68 6.31 M1.11 14.21 C2.15 10.88, 4.8 9.17, 9.64 4.4 M1.11 14.21 C4.23 11.36, 6.2 7.55, 9.64 4.4 M1.5 19.86 C6.95 16.08, 10.34 8.85, 17.9 0.99 M1.5 19.86 C7.44 12.87, 12.5 7.11, 17.9 0.99 M1.24 26.25 C7.87 20.3, 11.14 12.08, 23.55 0.59 M1.24 26.25 C8.7 18.5, 14.74 10.07, 23.55 0.59 M1.64 31.9 C11.19 20.65, 18.12 12.8, 28.53 0.95 M1.64 31.9 C10.1 23.21, 16.08 14.67, 28.53 0.95 M1.37 38.29 C13.76 24.36, 24.26 11.37, 34.18 0.56 M1.37 38.29 C11.32 25.56, 22.84 13.85, 34.18 0.56 M1.11 44.69 C14.7 29.54, 26.1 14.45, 39.16 0.92 M1.11 44.69 C11.9 32.3, 21.9 21.26, 39.16 0.92 M1.51 50.34 C17.27 36.65, 28.07 17.96, 44.81 0.52 M1.51 50.34 C12.99 37.76, 22.12 26.34, 44.81 0.52 M1.9 55.98 C12.9 41.47, 24.92 28.25, 49.79 0.89 M1.9 55.98 C16.2 38.99, 31.69 22.36, 49.79 0.89 M3.61 60.11 C19.9 43.46, 35.02 24.41, 54.78 1.25 M3.61 60.11 C23.58 38.74, 42.48 16.11, 54.78 1.25 M5.32 64.25 C26.53 42.48, 44.64 18.55, 60.42 0.85 M5.32 64.25 C20.15 46.31, 36.56 26.64, 60.42 0.85 M8.33 66.87 C19.51 55.24, 30.75 40.25, 65.41 1.21 M8.33 66.87 C22.86 50.75, 35.2 36.61, 65.41 1.21 M12.01 68.74 C30.2 45.54, 49.58 25.62, 71.05 0.82 M12.01 68.74 C29.58 49.72, 44.64 31.99, 71.05 0.82 M17.65 68.35 C38.08 41.88, 61.56 18.26, 76.04 1.18 M17.65 68.35 C29.97 52.73, 42.56 39.47, 76.04 1.18 M22.64 68.71 C46.29 44.25, 65.91 19.12, 81.68 0.78 M22.64 68.71 C38.08 51.97, 53.19 34.51, 81.68 0.78 M28.28 68.31 C50.87 43.42, 74.31 16.17, 86.67 1.14 M28.28 68.31 C44.92 49.24, 62.28 30.63, 86.67 1.14 M33.27 68.67 C48.49 52.64, 62.48 34.13, 92.31 0.75 M33.27 68.67 C54.62 44.69, 76.12 20.62, 92.31 0.75 M38.91 68.28 C58.8 48.07, 75.42 26.12, 97.3 1.11 M38.91 68.28 C60.02 44.71, 79.17 21.85, 97.3 1.11 M43.9 68.64 C64.58 47.38, 83.89 20.97, 102.94 0.71 M43.9 68.64 C60.62 50.8, 75.34 34.71, 102.94 0.71 M49.54 68.24 C65.31 48.23, 81.23 28.5, 107.93 1.07 M49.54 68.24 C62.51 52.68, 77.01 34.59, 107.93 1.07 M54.53 68.6 C74.05 45.28, 90.93 24.24, 113.57 0.68 M54.53 68.6 C73.8 45.23, 94.58 21.09, 113.57 0.68 M60.17 68.21 C75.64 50.39, 93.84 31.06, 118.56 1.04 M60.17 68.21 C80.52 46.35, 99.89 23.82, 118.56 1.04 M65.16 68.57 C81.42 49.8, 100.73 27.72, 124.2 0.64 M65.16 68.57 C87.14 43.62, 109.71 17.81, 124.2 0.64 M70.8 68.17 C91.19 43.4, 111.16 19.73, 129.19 1 M70.8 68.17 C89.71 45.96, 108.72 24.11, 129.19 1 M75.79 68.53 C88.99 50.63, 104.07 34.79, 134.83 0.61 M75.79 68.53 C87.1 53.69, 100.25 39.64, 134.83 0.61 M81.43 68.14 C95.46 52.85, 105.5 39.8, 139.82 0.97 M81.43 68.14 C97.67 49.69, 114.03 31.23, 139.82 0.97 M86.42 68.5 C97.86 55.24, 110.22 42.4, 145.47 0.57 M86.42 68.5 C103.56 50.37, 118.83 30.04, 145.47 0.57 M92.06 68.1 C104.51 52.19, 120.4 35.95, 150.45 0.93 M92.06 68.1 C112.22 43.36, 134.63 19.4, 150.45 0.93 M97.05 68.46 C113.42 49.43, 132.44 29.51, 156.1 0.54 M97.05 68.46 C116.73 46.54, 137.3 23.44, 156.1 0.54 M102.04 68.82 C119.01 48.92, 132.8 30.82, 161.08 0.9 M102.04 68.82 C121.26 47.79, 138.63 26.67, 161.08 0.9 M107.68 68.43 C122.88 51.48, 137.87 30.53, 166.73 0.51 M107.68 68.43 C122.53 50.29, 137.34 32.12, 166.73 0.51 M112.67 68.79 C135.64 42.4, 158.55 13.77, 171.71 0.87 M112.67 68.79 C135.03 42.17, 159.25 15.99, 171.71 0.87 M118.31 68.4 C141.03 41.9, 160.3 18.97, 176.7 1.23 M118.31 68.4 C135.49 49.55, 153.01 29.52, 176.7 1.23 M123.3 68.76 C143.5 44.29, 166.48 16.81, 182.34 0.83 M123.3 68.76 C146.11 42.7, 167.53 15.85, 182.34 0.83 M128.94 68.36 C145.37 48.25, 161.1 31.18, 186.67 1.95 M128.94 68.36 C151.08 42.74, 173.99 17.1, 186.67 1.95 M133.93 68.72 C149.08 51.68, 161.64 32.36, 191 3.06 M133.93 68.72 C147.42 54.38, 160.31 39.02, 191 3.06 M139.57 68.33 C159.61 46.47, 181.53 20.56, 194.68 4.93 M139.57 68.33 C154.65 50.53, 170.26 34.56, 194.68 4.93 M144.56 68.69 C161.35 48.9, 174.88 30.38, 196.39 9.06 M144.56 68.69 C155.68 57.44, 164.44 44.16, 196.39 9.06 M150.2 68.29 C164.69 55.72, 174.33 39.76, 198.09 13.2 M150.2 68.29 C167.2 48.25, 184.87 28.58, 198.09 13.2 M155.19 68.65 C168.38 55.08, 177.72 42.71, 197.83 19.6 M155.19 68.65 C168.78 52.78, 182.47 36.76, 197.83 19.6 M160.83 68.26 C173.8 51.31, 190.17 33.01, 197.57 25.99 M160.83 68.26 C169.94 57.94, 178.29 48.12, 197.57 25.99 M165.82 68.62 C177.92 56.68, 189.29 40.95, 197.96 31.64 M165.82 68.62 C176.52 56.89, 186.66 45.63, 197.96 31.64 M171.46 68.22 C181.74 57.35, 190.45 46.69, 197.7 38.03 M171.46 68.22 C177.65 60.42, 183.68 54.15, 197.7 38.03 M176.45 68.58 C182.25 59.67, 188.45 56.16, 197.44 44.43 M176.45 68.58 C181.32 61.62, 189.16 55.01, 197.44 44.43 M181.43 68.94 C185.49 62.5, 190.73 55.52, 197.18 50.83 M181.43 68.94 C188.66 60.89, 194.71 53.97, 197.18 50.83 M188.39 67.04 C192.93 63.81, 194.65 61.01, 197.57 56.47 M188.39 67.04 C190 64.84, 192.26 62.17, 197.57 56.47" stroke="#82c91e" stroke-width="0.5" fill="none"></path><path d="M17 0 M17 0 C51.52 0.93, 86.74 0.79, 181 0 M17 0 C66.87 -1.93, 116.68 -0.66, 181 0 M181 0 C193.08 -1.31, 196.78 4.05, 198 17 M181 0 C193.99 0.8, 199.4 6.85, 198 17 M198 17 C198.36 28.23, 198.47 37.84, 198 51 M198 17 C197.09 29.66, 198.41 43.9, 198 51 M198 51 C197.18 63.48, 190.4 66.27, 181 68 M198 51 C199.36 62.37, 193.33 70.01, 181 68 M181 68 C134.1 66.31, 90.2 67.76, 17 68 M181 68 C134.49 66.81, 87.9 66.5, 17 68 M17 68 C4.37 68.12, 0.78 62.87, 0 51 M17 68 C6.41 66.76, 0 63.46, 0 51 M0 51 C0.57 41.93, -0.96 33.6, 0 17 M0 51 C-1.01 41.57, -0.56 30.95, 0 17 M0 17 C0.02 7.64, 5.3 1.31, 17 0 M0 17 C1.19 4.22, 6.56 1, 17 0" stroke="#000000" stroke-width="1" fill="none"></path></g><g transform="translate(233 373.5) rotate(0 23.5 12.5)"><text x="23.5" y="18" font-family="Virgil, Segoe UI Emoji" font-size="20px" fill="#000000" text-anchor="middle" style="white-space: pre;" direction="ltr">Push</text></g><g stroke-linecap="round" transform="translate(10.408496732026151 53) rotate(0 24.101307189542467 14.297385620915037)"><path d="M1.9 1.65 C1.9 1.65, 1.9 1.65, 1.9 1.65 M1.9 1.65 C1.9 1.65, 1.9 1.65, 1.9 1.65 M2.95 6.54 C4.55 5.21, 7.13 2.29, 8.2 0.5 M2.95 6.54 C4.31 5, 5.14 3.6, 8.2 0.5 M2.69 12.94 C4.34 11.57, 6.65 6.15, 13.19 0.86 M2.69 12.94 C5.51 9, 9.42 6, 13.19 0.86 M0.46 21.6 C4.96 18.35, 8.47 10.82, 18.83 0.47 M0.46 21.6 C5.7 14.97, 12.22 9.24, 18.83 0.47 M1.51 26.49 C5.13 22.2, 12.63 16.52, 23.82 0.83 M1.51 26.49 C5.84 20.47, 10.35 14.6, 23.82 0.83 M4.53 29.11 C11.22 23.71, 16.23 15.19, 29.46 0.44 M4.53 29.11 C13.79 17.29, 23.78 7.3, 29.46 0.44 M8.86 30.23 C16.33 19.05, 26.19 11.68, 34.45 0.8 M8.86 30.23 C13.32 23.87, 19.96 19.09, 34.45 0.8 M14.51 29.83 C22.35 19.8, 30.79 10.48, 40.09 0.4 M14.51 29.83 C22.15 21.77, 29.26 13.12, 40.09 0.4 M19.49 30.2 C29.61 21.09, 36.24 11.16, 43.77 2.27 M19.49 30.2 C25.8 22.97, 31.62 16.99, 43.77 2.27 M25.14 29.8 C32.3 21.93, 38.3 14.41, 48.1 3.39 M25.14 29.8 C29.62 23.41, 36.01 17.02, 48.1 3.39 M30.12 30.16 C34.65 23.04, 40.72 15.42, 49.15 8.27 M30.12 30.16 C35.35 23.56, 39.98 18.55, 49.15 8.27 M35.11 30.52 C38.28 25.44, 40.15 23.6, 49.54 13.92 M35.11 30.52 C39.67 25.12, 45.54 18.68, 49.54 13.92 M41.41 29.37 C44.25 27.16, 44.54 25.43, 47.97 21.82 M41.41 29.37 C42.9 28.01, 44.05 26.08, 47.97 21.82" stroke="#82c91e" stroke-width="0.5" fill="none"></path><path d="M7.15 0 M7.15 0 C16.13 -1.21, 27.09 0.09, 41.05 0 M7.15 0 C17.46 0.37, 28.7 0.48, 41.05 0 M41.05 0 C44.76 -1.47, 47.07 3.16, 48.2 7.15 M41.05 0 C45.76 -0.25, 48.45 3.51, 48.2 7.15 M48.2 7.15 C48.69 11.45, 47.74 15.57, 48.2 21.45 M48.2 7.15 C48.61 10.99, 48.32 15.14, 48.2 21.45 M48.2 21.45 C49.07 24.75, 44.38 27.55, 41.05 28.59 M48.2 21.45 C48.57 27.02, 45.9 30.43, 41.05 28.59 M41.05 28.59 C28.69 28.02, 17.32 27.99, 7.15 28.59 M41.05 28.59 C28.56 28.87, 17.07 28.2, 7.15 28.59 M7.15 28.59 C1.64 27.31, -1.78 28.18, 0 21.45 M7.15 28.59 C1.75 26.98, -0.85 26.51, 0 21.45 M0 21.45 C-0.5 17.07, -1.24 13.97, 0 7.15 M0 21.45 C-0.61 16.55, 0.25 11.44, 0 7.15 M0 7.15 C-1.65 2.27, 2.21 -0.87, 7.15 0 M0 7.15 C0.66 2.1, 4.46 0.86, 7.15 0" stroke="#000000" stroke-width="1" fill="none"></path></g><g transform="translate(26.00980392156862 59.29738562091504) rotate(0 8.5 8.000000000000014)"><text x="8.5" y="11" font-family="Virgil, Segoe UI Emoji" font-size="12.474323062558351px" fill="#000000" text-anchor="middle" style="white-space: pre;" direction="ltr">me</text></g><g stroke-linecap="round" transform="translate(10 86.90522875816993) rotate(0 24.101307189542467 14.297385620915037)"><path d="M1.9 1.65 C1.9 1.65, 1.9 1.65, 1.9 1.65 M1.9 1.65 C1.9 1.65, 1.9 1.65, 1.9 1.65 M2.95 6.54 C4.91 4.49, 6.43 3.48, 8.2 0.5 M2.95 6.54 C4.87 4.5, 6.77 2.9, 8.2 0.5 M2.69 12.94 C6.08 9.55, 8.66 3.62, 13.19 0.86 M2.69 12.94 C5.3 10.55, 8.23 6.52, 13.19 0.86 M0.46 21.6 C7.23 12.74, 15.67 3.88, 18.83 0.47 M0.46 21.6 C4.75 16.78, 8.18 11.66, 18.83 0.47 M1.51 26.49 C4.56 20.4, 10.93 14.38, 23.82 0.83 M1.51 26.49 C5.76 19.64, 11.15 14.83, 23.82 0.83 M4.53 29.11 C10.46 22.11, 16.01 12.03, 29.46 0.44 M4.53 29.11 C12.18 20.66, 20.13 12.72, 29.46 0.44 M8.86 30.23 C17.75 17.92, 28.07 7.99, 34.45 0.8 M8.86 30.23 C16.89 21.1, 25.22 10.31, 34.45 0.8 M14.51 29.83 C18.12 23.45, 23.8 16.41, 40.09 0.4 M14.51 29.83 C21.36 20.34, 30.06 11.48, 40.09 0.4 M19.49 30.2 C29.89 21.07, 37.05 9.09, 43.77 2.27 M19.49 30.2 C24.85 25.05, 30.53 19.06, 43.77 2.27 M25.14 29.8 C33.25 19.37, 44.22 10.59, 48.1 3.39 M25.14 29.8 C32.36 22.57, 37.43 16.2, 48.1 3.39 M30.12 30.16 C38.32 23.39, 42.98 12.97, 49.15 8.27 M30.12 30.16 C33.99 26.37, 39.2 19.84, 49.15 8.27 M35.11 30.52 C39.76 27.71, 45.09 20.4, 49.54 13.92 M35.11 30.52 C39.24 25.63, 42.46 21.81, 49.54 13.92 M41.41 29.37 C44.21 27.83, 45.45 24.43, 47.97 21.82 M41.41 29.37 C43.29 26.73, 45.71 24.13, 47.97 21.82" stroke="#fab005" stroke-width="0.5" fill="none"></path><path d="M7.15 0 M7.15 0 C12.64 -1.61, 20.87 0.11, 41.05 0 M7.15 0 C14.83 0.15, 21.45 -0.4, 41.05 0 M41.05 0 C46.98 1.45, 47.65 2.3, 48.2 7.15 M41.05 0 C45.85 2.1, 47.53 2.24, 48.2 7.15 M48.2 7.15 C49.43 11.18, 49.39 16.31, 48.2 21.45 M48.2 7.15 C48.63 12.35, 48.37 17.57, 48.2 21.45 M48.2 21.45 C46.93 27.32, 44.3 28.92, 41.05 28.59 M48.2 21.45 C46.2 26.19, 45.79 28.19, 41.05 28.59 M41.05 28.59 C30.29 28.61, 24.73 28.21, 7.15 28.59 M41.05 28.59 C29.66 29.21, 18.42 28.67, 7.15 28.59 M7.15 28.59 C2.81 29.62, -1.26 26.01, 0 21.45 M7.15 28.59 C0.8 27.42, 2.15 24.46, 0 21.45 M0 21.45 C0.94 16.45, 0.41 12.35, 0 7.15 M0 21.45 C-0.15 18.56, -0.56 14.09, 0 7.15 M0 7.15 C-0.3 0.45, 3.33 -1.8, 7.15 0 M0 7.15 C0.67 0.25, 1.02 -0.36, 7.15 0" stroke="#000000" stroke-width="1" fill="none"></path></g><g transform="translate(26.101307189542467 93.20261437908493) rotate(0 8 8)"><text x="8" y="11" font-family="Virgil, Segoe UI Emoji" font-size="12.474323062558351px" fill="#000000" text-anchor="middle" style="white-space: pre;" direction="ltr">llm</text></g><g stroke-linecap="round"><g transform="translate(272.5 81) rotate(0 -3.044819532325505 22.661504817153315)"><path d="M-0.28 -0.35 C-1.33 7.29, -6.01 38.99, -7.29 46.9 M1.78 -1.58 C0.72 6.25, -6.12 37.42, -7.87 45.25" stroke="#000000" stroke-width="1" fill="none"></path></g><g transform="translate(272.5 81) rotate(0 -3.044819532325505 22.661504817153315)"><path d="M-11.54 23.29 C-8.58 27.23, -7.53 33.27, -6.25 43.85 M-10.01 21.8 C-9.36 29.31, -10.48 34.61, -8.36 44.37" stroke="#000000" stroke-width="1" fill="none"></path></g><g transform="translate(272.5 81) rotate(0 -3.044819532325505 22.661504817153315)"><path d="M4.05 26.72 C3.59 29.87, 1.25 35.16, -6.25 43.85 M5.59 25.22 C2.05 31.66, -3.28 36.03, -8.36 44.37" stroke="#000000" stroke-width="1" fill="none"></path></g></g><mask></mask><g stroke-linecap="round"><g transform="translate(288.13023379738956 202) rotate(0 34.898277674430176 18.130613365015023)"><path d="M-1.18 0.57 C10.36 6.28, 56.97 29.19, 68.71 34.93 M0.41 -0.17 C12.36 5.67, 59.64 30.34, 70.97 36.43" stroke="#000000" stroke-width="1" fill="none"></path></g><g transform="translate(288.13023379738956 202) rotate(0 34.898277674430176 18.130613365015023)"><path d="M42.21 30.91 C48.89 33.27, 56.8 34.19, 70.24 38.01 M41.75 32.54 C52.35 33.18, 63.4 34.95, 71.05 35.51" stroke="#000000" stroke-width="1" fill="none"></path></g><g transform="translate(288.13023379738956 202) rotate(0 34.898277674430176 18.130613365015023)"><path d="M51.78 12.76 C56.08 19.75, 61.5 25.38, 70.24 38.01 M51.33 14.39 C58.37 21.76, 65.84 30.28, 71.05 35.51" stroke="#000000" stroke-width="1" fill="none"></path></g></g><mask></mask><g stroke-linecap="round"><g transform="translate(266.5 201) rotate(0 -44.26401556580328 20.723745873570437)"><path d="M-0.94 -0.79 C-15.84 6.08, -73.54 35.22, -88.23 42.24 M0.77 1.41 C-14.41 8.41, -74.71 33.43, -89.3 40.24" stroke="#000000" stroke-width="1" fill="none"></path></g><g transform="translate(266.5 201) rotate(0 -44.26401556580328 20.723745873570437)"><path d="M-68.9 19.16 C-75.67 25.8, -85.88 34.72, -88.09 40.15 M-66.85 19.27 C-74.59 26.21, -80.49 32.43, -89.36 40.4" stroke="#000000" stroke-width="1" fill="none"></path></g><g transform="translate(266.5 201) rotate(0 -44.26401556580328 20.723745873570437)"><path d="M-60.68 37.96 C-70.89 37.04, -84.37 38.46, -88.09 40.15 M-58.63 38.07 C-68.85 39.13, -77.33 39.42, -89.36 40.4" stroke="#000000" stroke-width="1" fill="none"></path></g></g><mask></mask><g stroke-linecap="round"><g transform="translate(234.5 276.5144753785187) rotate(0 35.536218264699016 7.133991743340658)"><path d="M-0.91 0.2 C5.54 2.33, 25.8 13.52, 37.95 13.48 C50.1 13.43, 66.39 1.94, 71.99 -0.09 M0.81 -0.75 C7.69 1.53, 28.38 14.7, 40.12 15.01 C51.85 15.32, 65.98 3.72, 71.21 1.11" stroke="#000000" stroke-width="1" fill="none"></path></g><g transform="translate(234.5 276.5144753785187) rotate(0 35.536218264699016 7.133991743340658)"><path d="M17.16 -0.62 C12.65 0.6, 8.15 -0.23, 0.82 0 M16.72 1.27 C14.04 0.05, 9.61 1.59, -0.68 0.55" stroke="#000000" stroke-width="1" fill="none"></path></g><g transform="translate(234.5 276.5144753785187) rotate(0 35.536218264699016 7.133991743340658)"><path d="M12.53 10.64 C9.05 9.24, 5.64 5.74, 0.82 0 M12.08 12.53 C10.36 8.96, 6.88 8.19, -0.68 0.55" stroke="#000000" stroke-width="1" fill="none"></path></g><g transform="translate(234.5 276.5144753785187) rotate(0 35.536218264699016 7.133991743340658)"><path d="M60.48 13.54 C62.7 11.85, 65.01 7.89, 72.95 0.92 M60.03 15.43 C63.28 11.28, 64.76 10.11, 71.45 1.47" stroke="#000000" stroke-width="1" fill="none"></path></g><g transform="translate(234.5 276.5144753785187) rotate(0 35.536218264699016 7.133991743340658)"><path d="M54.07 3.18 C57.87 3.99, 61.68 2.47, 72.95 0.92 M53.63 5.07 C58.19 3.01, 60.99 3.96, 71.45 1.47" stroke="#000000" stroke-width="1" fill="none"></path></g></g><mask></mask><g stroke-linecap="round"><g transform="translate(377.5 316) rotate(0 -38.142084415997374 17.273155390541092)"><path d="M0.29 -0.73 C-12.38 5.05, -63.19 27.89, -76.1 33.83 M-1.02 1.5 C-13.76 7.54, -63.75 30.03, -76.57 35.28" stroke="#000000" stroke-width="1" fill="none"></path></g><g transform="translate(377.5 316) rotate(0 -38.142084415997374 17.273155390541092)"><path d="M-56 16.17 C-61.55 20.5, -66.12 25.6, -78.32 34.81 M-54.16 14.11 C-61.2 20.4, -66.95 27.36, -76.35 34.85" stroke="#000000" stroke-width="1" fill="none"></path></g><g transform="translate(377.5 316) rotate(0 -38.142084415997374 17.273155390541092)"><path d="M-47.84 35 C-55.63 33.88, -62.58 33.5, -78.32 34.81 M-46.01 32.95 C-55.22 33.85, -63.32 35.38, -76.35 34.85" stroke="#000000" stroke-width="1" fill="none"></path></g></g><mask></mask><g stroke-linecap="round"><g transform="translate(137.5 318) rotate(0 51.41109376825858 14.753186423620235)"><path d="M-0.47 0.95 C16.46 5.8, 83.87 23.32, 101.07 28.06 M1.48 0.4 C18.83 5.46, 86.48 24.63, 103.29 29.11" stroke="#000000" stroke-width="1" fill="none"></path></g><g transform="translate(137.5 318) rotate(0 51.41109376825858 14.753186423620235)"><path d="M74.97 29.94 C79.55 32.22, 89.44 31.36, 101.41 30.87 M73.58 30.91 C84.95 30.45, 96.78 28.63, 103.01 29.48" stroke="#000000" stroke-width="1" fill="none"></path></g><g transform="translate(137.5 318) rotate(0 51.41109376825858 14.753186423620235)"><path d="M80.43 10.16 C83.43 17.51, 91.92 21.75, 101.41 30.87 M79.05 11.13 C88.34 18.11, 98.11 23.71, 103.01 29.48" stroke="#000000" stroke-width="1" fill="none"></path></g></g><mask></mask><g stroke-linecap="round"><g transform="translate(105.5 240) rotate(0 22.734312252987536 -93.69231660418679)"><path d="M-0.16 -0.13 C0.61 -17.62, -2.42 -74.08, 5.47 -104.94 C13.37 -135.8, 40.2 -171.92, 47.2 -185.29 M-1.7 -1.24 C-1.22 -18.61, -3.79 -72.89, 4.25 -103.9 C12.29 -134.9, 39.26 -173.36, 46.54 -187.25" stroke="#000000" stroke-width="1" fill="none"></path></g><g transform="translate(105.5 240) rotate(0 22.734312252987536 -93.69231660418679)"><path d="M40.78 -158.65 C41.51 -168.47, 46.34 -179.1, 47.94 -186.38 M41.69 -157.23 C42.87 -164.34, 43.7 -170.46, 47.34 -186.63" stroke="#000000" stroke-width="1" fill="none"></path></g><g transform="translate(105.5 240) rotate(0 22.734312252987536 -93.69231660418679)"><path d="M23.12 -169.11 C30.46 -174.99, 41.89 -181.7, 47.94 -186.38 M24.03 -167.69 C28.7 -172.79, 33.09 -176.81, 47.34 -186.63" stroke="#000000" stroke-width="1" fill="none"></path></g></g><mask></mask><g stroke-linecap="round"><g transform="translate(416.5 234) rotate(0 -28.41419219999574 -90.86237864792346)"><path d="M-1.09 1 C-3.08 -17.47, -3.73 -80.13, -12.95 -110.75 C-22.16 -141.37, -49.31 -170.58, -56.39 -182.72 M0.53 0.47 C-0.99 -18.38, -1.08 -82.46, -10.73 -112.74 C-20.38 -143.03, -50.01 -169.58, -57.36 -181.26" stroke="#000000" stroke-width="1" fill="none"></path></g><g transform="translate(416.5 234) rotate(0 -28.41419219999574 -90.86237864792346)"><path d="M-30.01 -167.35 C-36.73 -169.96, -42.15 -171.63, -58.34 -179.74 M-30.69 -165.11 C-39.37 -170.48, -46.35 -175.11, -57.52 -181.32" stroke="#000000" stroke-width="1" fill="none"></path></g><g transform="translate(416.5 234) rotate(0 -28.41419219999574 -90.86237864792346)"><path d="M-45.97 -154.46 C-49.3 -159.66, -51.32 -164.08, -58.34 -179.74 M-46.66 -152.21 C-50.65 -161.26, -52.97 -169.66, -57.52 -181.32" stroke="#000000" stroke-width="1" fill="none"></path></g></g><mask></mask></svg>