<?xml version="1.0" encoding="UTF-8" standalone="no"?>
<!DOCTYPE svg PUBLIC "-//W3C//DTD SVG 1.1//EN"
 "http://www.w3.org/Graphics/SVG/1.1/DTD/svg11.dtd">
<!-- Generated by graphviz version 12.2.1 (20241206.2353)
 -->
<!-- Title: UserStates Pages: 1 -->
<svg width="995pt" height="477pt"
 viewBox="36.00 36.00 958.88 441.25" xmlns="http://www.w3.org/2000/svg" xmlns:xlink="http://www.w3.org/1999/xlink">
<g id="graph0" class="graph" transform="scale(1 1) rotate(0) translate(40 437.25)">
<title>UserStates</title>
<polygon fill="white" stroke="none" points="-4,4 -4,-401.25 918.88,-401.25 918.88,4 -4,4"/>
<!-- anonymous -->
<g id="node1" class="node">
<title>anonymous</title>
<text text-anchor="middle" x="608.88" y="-375.95" font-family="Palatino" font-size="9.00">anonymous</text>
</g>
<!-- pending_ssh -->
<g id="node2" class="node">
<title>pending_ssh</title>
<text text-anchor="middle" x="484.88" y="-292.95" font-family="Palatino" font-size="9.00">pending</text>
<text text-anchor="middle" x="484.88" y="-282.45" font-family="Palatino" font-size="9.00">(ssh key captured)</text>
</g>
<!-- anonymous&#45;&gt;pending_ssh -->
<g id="edge1" class="edge">
<title>anonymous&#45;&gt;pending_ssh</title>
<path fill="none" stroke="#333333" d="M584.67,-361.42C564.53,-347.41 535.78,-327.41 514.31,-312.47"/>
<polygon fill="#333333" stroke="#333333" points="515.36,-311.07 510.26,-309.66 513.36,-313.95 515.36,-311.07"/>
<text text-anchor="middle" x="567.47" y="-332.6" font-family="Palatino" font-size="7.00">ssh connect</text>
</g>
<!-- pending_web -->
<g id="node3" class="node">
<title>pending_web</title>
<text text-anchor="middle" x="608.88" y="-292.95" font-family="Palatino" font-size="9.00">pending</text>
<text text-anchor="middle" x="608.88" y="-282.45" font-family="Palatino" font-size="9.00">(email entered)</text>
</g>
<!-- anonymous&#45;&gt;pending_web -->
<g id="edge3" class="edge">
<title>anonymous&#45;&gt;pending_web</title>
<path fill="none" stroke="#333333" d="M608.88,-361.62C608.88,-348.46 608.88,-329.93 608.88,-315.29"/>
<polygon fill="#333333" stroke="#333333" points="610.63,-315.39 608.88,-310.39 607.13,-315.39 610.63,-315.39"/>
<text text-anchor="middle" x="618.25" y="-332.6" font-family="Palatino" font-size="7.00">/auth</text>
</g>
<!-- pending_share -->
<g id="node4" class="node">
<title>pending_share</title>
<text text-anchor="middle" x="844.88" y="-292.95" font-family="Palatino" font-size="9.00">pending</text>
<text text-anchor="middle" x="844.88" y="-282.45" font-family="Palatino" font-size="9.00">(share recipient)</text>
</g>
<!-- anonymous&#45;&gt;pending_share -->
<g id="edge5" class="edge">
<title>anonymous&#45;&gt;pending_share</title>
<path fill="none" stroke="#333333" stroke-dasharray="5,2" d="M635.49,-368.52C677.34,-353.23 758.7,-323.5 806.75,-305.93"/>
<polygon fill="#333333" stroke="#333333" points="807.21,-307.63 811.3,-304.27 806.01,-304.34 807.21,-307.63"/>
<text text-anchor="middle" x="744.83" y="-332.6" font-family="Palatino" font-size="7.00">invited</text>
</g>
<!-- has_ssh_key -->
<g id="node11" class="node">
<title>has_ssh_key</title>
<ellipse fill="none" stroke="black" cx="341.88" cy="-202.75" rx="27" ry="18"/>
<text text-anchor="middle" x="341.88" y="-199.45" font-family="Palatino" font-size="9.00">has ssh key</text>
</g>
<!-- pending_ssh&#45;&gt;has_ssh_key -->
<g id="edge2" class="edge">
<title>pending_ssh&#45;&gt;has_ssh_key</title>
<path fill="none" stroke="#333333" d="M456.96,-273.17C430.82,-257.4 392.1,-234.04 366.92,-218.86"/>
<polygon fill="#333333" stroke="#333333" points="367.94,-217.43 362.75,-216.34 366.13,-220.42 367.94,-217.43"/>
<text text-anchor="middle" x="436.04" y="-244.35" font-family="Palatino" font-size="7.00">verify email</text>
</g>
<!-- paying -->
<g id="node8" class="node">
<title>paying</title>
<polygon fill="none" stroke="black" points="583.88,-124.25 529.88,-124.25 529.88,-88.25 583.88,-88.25 583.88,-124.25"/>
<text text-anchor="middle" x="556.88" y="-102.95" font-family="Palatino" font-size="9.00">paying</text>
</g>
<!-- pending_web&#45;&gt;paying -->
<g id="edge4" class="edge">
<title>pending_web&#45;&gt;paying</title>
<path fill="none" stroke="#333333" d="M605.17,-273C599.11,-245.92 586.32,-191.41 571.88,-146.25 570.22,-141.09 568.26,-135.61 566.3,-130.45"/>
<polygon fill="#333333" stroke="#333333" points="568.01,-130.01 564.57,-125.98 564.74,-131.28 568.01,-130.01"/>
<text text-anchor="middle" x="615.79" y="-200.22" font-family="Palatino" font-size="7.00">stripe checkout</text>
</g>
<!-- has_share_access -->
<g id="node15" class="node">
<title>has_share_access</title>
<ellipse fill="none" stroke="black" cx="887.88" cy="-18" rx="27" ry="18"/>
<text text-anchor="middle" x="887.88" y="-14.7" font-family="Palatino" font-size="9.00">share access</text>
</g>
<!-- pending_share&#45;&gt;has_share_access -->
<g id="edge6" class="edge">
<title>pending_share&#45;&gt;has_share_access</title>
<path fill="none" stroke="#333333" d="M855.94,-273.09C859.89,-266.43 864.05,-258.57 866.88,-251 893.8,-178.89 892.3,-85.78 889.75,-42.74"/>
<polygon fill="#333333" stroke="#333333" points="891.5,-42.66 889.44,-37.78 888.01,-42.89 891.5,-42.66"/>
<text text-anchor="middle" x="899.97" y="-151.97" font-family="Palatino" font-size="7.00">register</text>
</g>
<!-- grandfathered -->
<g id="node5" class="node">
<title>grandfathered</title>
<polygon fill="none" stroke="black" points="247.12,-124.25 182.62,-124.25 182.62,-88.25 247.12,-88.25 247.12,-124.25"/>
<text text-anchor="middle" x="214.88" y="-108.2" font-family="Palatino" font-size="9.00">grandfathered</text>
<text text-anchor="middle" x="214.88" y="-97.7" font-family="Palatino" font-size="9.00">(pre&#45;2026&#45;01&#45;06)</text>
</g>
<!-- grandfathered&#45;&gt;has_ssh_key -->
<g id="edge14" class="edge">
<title>grandfathered&#45;&gt;has_ssh_key</title>
<path fill="none" stroke="#333333" stroke-dasharray="5,2" d="M237.17,-124.71C251.37,-135.75 270.21,-150.24 287.12,-162.75 297.42,-170.36 308.94,-178.61 318.75,-185.55"/>
<polygon fill="#333333" stroke="#333333" points="317.67,-186.94 322.77,-188.39 319.69,-184.08 317.67,-186.94"/>
<text text-anchor="middle" x="299.5" y="-151.97" font-family="Palatino" font-size="7.00">add key</text>
</g>
<!-- has_passkey -->
<g id="node12" class="node">
<title>has_passkey</title>
<ellipse fill="none" stroke="black" cx="260.88" cy="-18" rx="27" ry="18"/>
<text text-anchor="middle" x="260.88" y="-14.7" font-family="Palatino" font-size="9.00">has passkey</text>
</g>
<!-- grandfathered&#45;&gt;has_passkey -->
<g id="edge18" class="edge">
<title>grandfathered&#45;&gt;has_passkey</title>
<path fill="none" stroke="#333333" stroke-dasharray="5,2" d="M182.2,-97.53C156.79,-89.91 127.95,-76.69 141.62,-58 160.69,-31.94 180.2,-46.09 210.88,-36 217.48,-33.83 224.55,-31.45 231.24,-29.18"/>
<polygon fill="#333333" stroke="#333333" points="231.65,-30.89 235.82,-27.63 230.52,-27.58 231.65,-30.89"/>
<text text-anchor="middle" x="153.25" y="-59.6" font-family="Palatino" font-size="7.00">register</text>
</g>
<!-- has_discord -->
<g id="node13" class="node">
<title>has_discord</title>
<ellipse fill="none" stroke="black" cx="405.88" cy="-18" rx="29.4" ry="18"/>
<text text-anchor="middle" x="405.88" y="-14.7" font-family="Palatino" font-size="9.00">discord linked</text>
</g>
<!-- grandfathered&#45;&gt;has_discord -->
<g id="edge22" class="edge">
<title>grandfathered&#45;&gt;has_discord</title>
<path fill="none" stroke="#333333" stroke-dasharray="5,2" d="M247.28,-90.62C283.6,-74.22 341.96,-47.86 376.84,-32.11"/>
<polygon fill="#333333" stroke="#333333" points="377.44,-33.76 381.27,-30.11 376,-30.57 377.44,-33.76"/>
<text text-anchor="middle" x="322.1" y="-59.6" font-family="Palatino" font-size="7.00">link</text>
</g>
<!-- has_vms -->
<g id="node14" class="node">
<title>has_vms</title>
<ellipse fill="none" stroke="black" cx="715.88" cy="-18" rx="27" ry="18"/>
<text text-anchor="middle" x="715.88" y="-14.7" font-family="Palatino" font-size="9.00">owns VMs</text>
</g>
<!-- grandfathered&#45;&gt;has_vms -->
<g id="edge26" class="edge">
<title>grandfathered&#45;&gt;has_vms</title>
<path fill="none" stroke="#333333" d="M247.58,-96.58C259.56,-93.62 273.27,-90.5 285.88,-88.25 367.39,-73.7 389.87,-83.41 470.88,-66.25 483.05,-63.67 485.53,-60.93 497.62,-58 562.74,-42.2 640.2,-29.86 683.12,-23.57"/>
<polygon fill="#333333" stroke="#333333" points="683.26,-25.32 687.96,-22.87 682.76,-21.86 683.26,-25.32"/>
<text text-anchor="middle" x="512.25" y="-59.6" font-family="Palatino" font-size="7.00">create vm</text>
</g>
<!-- support -->
<g id="node16" class="node">
<title>support</title>
<ellipse fill="none" stroke="black" cx="165.88" cy="-18" rx="30.19" ry="18"/>
<text text-anchor="middle" x="165.88" y="-14.7" font-family="Palatino" font-size="9.00">support access</text>
</g>
<!-- grandfathered&#45;&gt;support -->
<g id="edge30" class="edge">
<title>grandfathered&#45;&gt;support</title>
<path fill="none" stroke="#333333" stroke-dasharray="5,2" d="M182.25,-102.07C159.08,-97.92 129.49,-88.33 114.38,-66.25 105.14,-52.76 119.9,-40.38 135.95,-31.68"/>
<polygon fill="#333333" stroke="#333333" points="136.42,-33.4 140.06,-29.56 134.82,-30.29 136.42,-33.4"/>
<text text-anchor="middle" x="122.62" y="-59.6" font-family="Palatino" font-size="7.00">grant</text>
</g>
<!-- trial -->
<g id="node6" class="node">
<title>trial</title>
<polygon fill="none" stroke="black" points="353.88,-124.25 299.88,-124.25 299.88,-88.25 353.88,-88.25 353.88,-124.25"/>
<text text-anchor="middle" x="326.88" y="-108.2" font-family="Palatino" font-size="9.00">trial</text>
<text text-anchor="middle" x="326.88" y="-97.7" font-family="Palatino" font-size="9.00">(expires)</text>
</g>
<!-- trial_expired -->
<g id="node10" class="node">
<title>trial_expired</title>
<polygon fill="none" stroke="black" stroke-dasharray="5,2" points="471.88,-124.25 417.88,-124.25 417.88,-88.25 471.88,-88.25 471.88,-124.25"/>
<text text-anchor="middle" x="444.88" y="-102.95" font-family="Palatino" font-size="9.00">trial expired</text>
</g>
<!-- trial&#45;&gt;trial_expired -->
<g id="edge12" class="edge">
<title>trial&#45;&gt;trial_expired</title>
<path fill="none" stroke="#333333" d="M354.24,-106.25C371.22,-106.25 393.16,-106.25 411.2,-106.25"/>
<polygon fill="#333333" stroke="#333333" points="411.14,-108 416.14,-106.25 411.14,-104.5 411.14,-108"/>
<text text-anchor="middle" x="385.88" y="-110.85" font-family="Palatino" font-size="7.00">time passes</text>
</g>
<!-- trial&#45;&gt;has_ssh_key -->
<g id="edge15" class="edge">
<title>trial&#45;&gt;has_ssh_key</title>
<path fill="none" stroke="#333333" stroke-dasharray="5,2" d="M321.51,-124.47C318.85,-135.55 316.85,-150.16 320.12,-162.75 321.73,-168.94 324.57,-175.19 327.66,-180.82"/>
<polygon fill="#333333" stroke="#333333" points="326.02,-181.48 330.05,-184.91 329.04,-179.71 326.02,-181.48"/>
<text text-anchor="middle" x="332.5" y="-151.97" font-family="Palatino" font-size="7.00">add key</text>
</g>
<!-- trial&#45;&gt;has_passkey -->
<g id="edge19" class="edge">
<title>trial&#45;&gt;has_passkey</title>
<path fill="none" stroke="#333333" stroke-dasharray="5,2" d="M299.69,-99.29C282.09,-93.86 260.49,-83.91 249.62,-66.25 244.96,-58.66 246.06,-49.29 248.96,-40.9"/>
<polygon fill="#333333" stroke="#333333" points="250.41,-41.98 250.64,-36.69 247.16,-40.68 250.41,-41.98"/>
<text text-anchor="middle" x="261.25" y="-59.6" font-family="Palatino" font-size="7.00">register</text>
</g>
<!-- trial&#45;&gt;has_discord -->
<g id="edge23" class="edge">
<title>trial&#45;&gt;has_discord</title>
<path fill="none" stroke="#333333" stroke-dasharray="5,2" d="M334.16,-87.93C338.68,-78.46 345.1,-66.87 352.88,-58 360.55,-49.24 370.53,-41.27 379.75,-34.85"/>
<polygon fill="#333333" stroke="#333333" points="380.65,-36.35 383.81,-32.1 378.69,-33.45 380.65,-36.35"/>
<text text-anchor="middle" x="358.88" y="-59.6" font-family="Palatino" font-size="7.00">link</text>
</g>
<!-- trial&#45;&gt;has_vms -->
<g id="edge27" class="edge">
<title>trial&#45;&gt;has_vms</title>
<path fill="none" stroke="#333333" d="M354.25,-98.86C368.93,-95.52 387.35,-91.47 403.88,-88.25 461.39,-77.04 476.62,-78.75 533.88,-66.25 547.7,-63.23 550.94,-61.6 564.62,-58 606,-47.11 653.83,-34.83 684.44,-27.01"/>
<polygon fill="#333333" stroke="#333333" points="684.82,-28.72 689.23,-25.79 683.96,-25.33 684.82,-28.72"/>
<text text-anchor="middle" x="579.25" y="-59.6" font-family="Palatino" font-size="7.00">create vm</text>
</g>
<!-- free -->
<g id="node7" class="node">
<title>free</title>
<polygon fill="none" stroke="black" points="684.88,-124.25 630.88,-124.25 630.88,-88.25 684.88,-88.25 684.88,-124.25"/>
<text text-anchor="middle" x="657.88" y="-108.2" font-family="Palatino" font-size="9.00">free</text>
<text text-anchor="middle" x="657.88" y="-97.7" font-family="Palatino" font-size="9.00">(invite code)</text>
</g>
<!-- free&#45;&gt;has_ssh_key -->
<g id="edge16" class="edge">
<title>free&#45;&gt;has_ssh_key</title>
<path fill="none" stroke="#333333" stroke-dasharray="5,2" d="M630.66,-115.51C620.7,-118.42 609.32,-121.62 598.88,-124.25 554.01,-135.55 540.11,-129.14 497.12,-146.25 483.97,-151.48 482.8,-156.98 469.88,-162.75 438.06,-176.96 399.59,-187.91 373.19,-194.53"/>
<polygon fill="#333333" stroke="#333333" points="372.98,-192.78 368.55,-195.68 373.82,-196.18 372.98,-192.78"/>
<text text-anchor="middle" x="509.5" y="-151.97" font-family="Palatino" font-size="7.00">add key</text>
</g>
<!-- free&#45;&gt;has_passkey -->
<g id="edge20" class="edge">
<title>free&#45;&gt;has_passkey</title>
<path fill="none" stroke="#333333" stroke-dasharray="5,2" d="M640.89,-87.78C629.5,-77.23 613.57,-64.59 596.88,-58 499.31,-19.46 465.89,-49.6 361.88,-36 338.65,-32.96 312.58,-28.55 292.74,-24.98"/>
<polygon fill="#333333" stroke="#333333" points="293.26,-23.29 288.02,-24.12 292.63,-26.74 293.26,-23.29"/>
<text text-anchor="middle" x="623.49" y="-59.6" font-family="Palatino" font-size="7.00">register</text>
</g>
<!-- free&#45;&gt;has_discord -->
<g id="edge24" class="edge">
<title>free&#45;&gt;has_discord</title>
<path fill="none" stroke="#333333" stroke-dasharray="5,2" d="M685.29,-91.27C699.89,-82.01 712.96,-69.5 702.88,-58 685.84,-38.58 516.38,-25.82 441.33,-21.07"/>
<polygon fill="#333333" stroke="#333333" points="441.84,-19.35 436.74,-20.78 441.62,-22.84 441.84,-19.35"/>
<text text-anchor="middle" x="712.42" y="-59.6" font-family="Palatino" font-size="7.00">link</text>
</g>
<!-- free&#45;&gt;has_vms -->
<g id="edge28" class="edge">
<title>free&#45;&gt;has_vms</title>
<path fill="none" stroke="#333333" d="M685.02,-103.51C709.9,-100.31 745.45,-91.32 762.88,-66.25 771.82,-53.39 758.16,-40.92 743.3,-32.02"/>
<polygon fill="#333333" stroke="#333333" points="744.34,-30.6 739.13,-29.66 742.62,-33.64 744.34,-30.6"/>
<text text-anchor="middle" x="780.29" y="-59.6" font-family="Palatino" font-size="7.00">create vm</text>
</g>
<!-- paying&#45;&gt;has_ssh_key -->
<g id="edge17" class="edge">
<title>paying&#45;&gt;has_ssh_key</title>
<path fill="none" stroke="#333333" stroke-dasharray="5,2" d="M529.46,-115.06C505.88,-122.13 471.18,-133.39 442.12,-146.25 434.57,-149.59 394.58,-171.98 367.45,-187.28"/>
<polygon fill="#333333" stroke="#333333" points="366.68,-185.71 363.19,-189.69 368.4,-188.75 366.68,-185.71"/>
<text text-anchor="middle" x="454.5" y="-151.97" font-family="Palatino" font-size="7.00">add key</text>
</g>
<!-- paying&#45;&gt;has_passkey -->
<g id="edge21" class="edge">
<title>paying&#45;&gt;has_passkey</title>
<path fill="none" stroke="#333333" stroke-dasharray="5,2" d="M529.54,-98.02C500.84,-90.37 454.46,-77.83 414.62,-66.25 371.51,-53.72 321.91,-38.29 290.97,-28.55"/>
<polygon fill="#333333" stroke="#333333" points="291.78,-26.97 286.48,-27.13 290.72,-30.3 291.78,-26.97"/>
<text text-anchor="middle" x="426.25" y="-59.6" font-family="Palatino" font-size="7.00">register</text>
</g>
<!-- paying&#45;&gt;has_discord -->
<g id="edge25" class="edge">
<title>paying&#45;&gt;has_discord</title>
<path fill="none" stroke="#333333" stroke-dasharray="5,2" d="M529.38,-97.81C508.27,-91.37 478.93,-80.79 455.88,-66.25 444,-58.76 432.5,-48.19 423.52,-38.95"/>
<polygon fill="#333333" stroke="#333333" points="424.82,-37.78 420.11,-35.35 422.28,-40.19 424.82,-37.78"/>
<text text-anchor="middle" x="461.88" y="-59.6" font-family="Palatino" font-size="7.00">link</text>
</g>
<!-- paying&#45;&gt;has_vms -->
<g id="edge29" class="edge">
<title>paying&#45;&gt;has_vms</title>
<path fill="none" stroke="#333333" d="M584.12,-96.51C604.07,-89.59 631.47,-78.98 653.88,-66.25 668.6,-57.88 683.74,-46.41 695.37,-36.86"/>
<polygon fill="#333333" stroke="#333333" points="696.25,-38.41 698.97,-33.87 694.01,-35.72 696.25,-38.41"/>
<text text-anchor="middle" x="681.16" y="-59.6" font-family="Palatino" font-size="7.00">create vm</text>
</g>
<!-- paying&#45;&gt;support -->
<g id="edge31" class="edge">
<title>paying&#45;&gt;support</title>
<path fill="none" stroke="#333333" stroke-dasharray="5,2" d="M529.48,-97.55C516.64,-94.22 501.07,-90.55 486.88,-88.25 370.87,-69.44 332.27,-110.45 223.38,-66.25 208.42,-60.18 194.38,-48.79 183.91,-38.71"/>
<polygon fill="#333333" stroke="#333333" points="185.22,-37.55 180.44,-35.27 182.75,-40.03 185.22,-37.55"/>
<text text-anchor="middle" x="231.62" y="-59.6" font-family="Palatino" font-size="7.00">grant</text>
</g>
<!-- billing_required -->
<g id="node9" class="node">
<title>billing_required</title>
<polygon fill="none" stroke="black" stroke-dasharray="5,2" points="531.62,-220.75 470.12,-220.75 470.12,-184.75 531.62,-184.75 531.62,-220.75"/>
<text text-anchor="middle" x="500.88" y="-199.45" font-family="Palatino" font-size="9.00">billing required</text>
</g>
<!-- billing_required&#45;&gt;trial -->
<g id="edge10" class="edge">
<title>billing_required&#45;&gt;trial</title>
<path fill="none" stroke="#333333" d="M469.87,-196.42C443.97,-190.95 406.86,-180.63 378.62,-162.75 364.92,-154.07 352.43,-140.9 343.15,-129.57"/>
<polygon fill="#333333" stroke="#333333" points="344.55,-128.51 340.06,-125.69 341.81,-130.7 344.55,-128.51"/>
<text text-anchor="middle" x="393.25" y="-151.97" font-family="Palatino" font-size="7.00">trial code</text>
</g>
<!-- billing_required&#45;&gt;free -->
<g id="edge11" class="edge">
<title>billing_required&#45;&gt;free</title>
<path fill="none" stroke="#333333" d="M531.9,-185.33C544.43,-178.53 558.95,-170.46 571.88,-162.75 590.25,-151.79 610.36,-138.87 626.51,-128.25"/>
<polygon fill="#333333" stroke="#333333" points="627.36,-129.79 630.57,-125.57 625.43,-126.87 627.36,-129.79"/>
<text text-anchor="middle" x="611.72" y="-151.97" font-family="Palatino" font-size="7.00">free code</text>
</g>
<!-- billing_required&#45;&gt;paying -->
<g id="edge9" class="edge">
<title>billing_required&#45;&gt;paying</title>
<path fill="none" stroke="#333333" d="M514.3,-184.28C519.13,-177.69 524.47,-170.02 528.88,-162.75 535.14,-152.41 541.29,-140.5 546.21,-130.36"/>
<polygon fill="#333333" stroke="#333333" points="547.73,-131.25 548.31,-125.99 544.57,-129.74 547.73,-131.25"/>
<text text-anchor="middle" x="551.6" y="-151.97" font-family="Palatino" font-size="7.00">checkout</text>
</g>
<!-- trial_expired&#45;&gt;paying -->
<g id="edge13" class="edge">
<title>trial_expired&#45;&gt;paying</title>
<path fill="none" stroke="#333333" d="M472.27,-106.25C487.71,-106.25 507.11,-106.25 523.44,-106.25"/>
<polygon fill="#333333" stroke="#333333" points="523.25,-108 528.25,-106.25 523.25,-104.5 523.25,-108"/>
<text text-anchor="middle" x="500.88" y="-110.85" font-family="Palatino" font-size="7.00">checkout</text>
</g>
<!-- has_ssh_key&#45;&gt;grandfathered -->
<g id="edge7" class="edge">
<title>has_ssh_key&#45;&gt;grandfathered</title>
<path fill="none" stroke="#333333" d="M315.03,-198.84C275.34,-193.93 204,-182.53 188.62,-162.75 180.92,-152.84 185.86,-140.31 193.43,-129.66"/>
<polygon fill="#333333" stroke="#333333" points="194.74,-130.83 196.4,-125.8 191.96,-128.7 194.74,-130.83"/>
<text text-anchor="middle" x="207.75" y="-156.1" font-family="Palatino" font-size="7.00">created</text>
<text text-anchor="middle" x="207.75" y="-147.85" font-family="Palatino" font-size="7.00">before cutoff</text>
</g>
<!-- has_ssh_key&#45;&gt;billing_required -->
<g id="edge8" class="edge">
<title>has_ssh_key&#45;&gt;billing_required</title>
<path fill="none" stroke="#333333" d="M369.21,-202.75C395.21,-202.75 434.54,-202.75 463.45,-202.75"/>
<polygon fill="#333333" stroke="#333333" points="463.31,-204.5 468.31,-202.75 463.31,-201 463.31,-204.5"/>
<text text-anchor="middle" x="419.5" y="-215.6" font-family="Palatino" font-size="7.00">created</text>
<text text-anchor="middle" x="419.5" y="-207.35" font-family="Palatino" font-size="7.00">after cutoff</text>
</g>
<!-- disposable -->
<g id="node17" class="node">
<title>disposable</title>
<polygon fill="none" stroke="black" stroke-dasharray="5,2" points="87.75,-36 0,-36 0,0 87.75,0 87.75,-36"/>
<text text-anchor="middle" x="43.88" y="-19.95" font-family="Palatino" font-size="9.00">disposable email</text>
<text text-anchor="middle" x="43.88" y="-9.45" font-family="Palatino" font-size="9.00">(vm creation blocked)</text>
</g>
<!-- has_ssh_key&#45;&gt;disposable -->
<g id="edge34" class="edge">
<title>has_ssh_key&#45;&gt;disposable</title>
<path fill="none" stroke="#990000" stroke-dasharray="5,2" d="M314.9,-200.01C280.93,-196.8 221.7,-187.81 177.88,-162.75 124.68,-132.34 80.17,-73.84 58.34,-41.64"/>
<polygon fill="#990000" stroke="#990000" points="59.86,-40.76 55.62,-37.58 56.95,-42.71 59.86,-40.76"/>
<text text-anchor="middle" x="139.53" y="-103.72" font-family="Palatino" font-size="7.00">ipqs flag</text>
</g>
<!-- has_vms&#45;&gt;pending_share -->
<g id="edge32" class="edge">
<title>has_vms&#45;&gt;pending_share</title>
<path fill="none" stroke="#333333" stroke-dasharray="5,2" d="M741.69,-23.97C761.22,-29.12 787.12,-39.15 801.88,-58 827.24,-90.4 839.28,-214.84 843.28,-266.89"/>
<polygon fill="#333333" stroke="#333333" points="841.52,-266.8 843.64,-271.65 845.01,-266.54 841.52,-266.8"/>
<text text-anchor="middle" x="851.23" y="-156.1" font-family="Palatino" font-size="7.00">invite</text>
<text text-anchor="middle" x="851.23" y="-147.85" font-family="Palatino" font-size="7.00">unregistered</text>
</g>
<!-- has_vms&#45;&gt;has_share_access -->
<g id="edge33" class="edge">
<title>has_vms&#45;&gt;has_share_access</title>
<path fill="none" stroke="#333333" stroke-dasharray="5,2" d="M743.13,-18C773.23,-18 821.74,-18 854.2,-18"/>
<polygon fill="#333333" stroke="#333333" points="853.95,-19.75 858.95,-18 853.95,-16.25 853.95,-19.75"/>
<text text-anchor="middle" x="801.88" y="-30.85" font-family="Palatino" font-size="7.00">invite</text>
<text text-anchor="middle" x="801.88" y="-22.6" font-family="Palatino" font-size="7.00">registered</text>
</g>
</g>
</svg>
