<?xml version="1.0" encoding="UTF-8"?>
<!--
  THE FLOW OF USERS THROUGH EXE.DEV
  Inspired by Charles Minard's Napoleon's March (1869)

  Two entry paths: SSH (main) and Web (/auth)
  SSH users hit billing gate after 2026-01-06 cutoff
  Web users go directly to Stripe checkout
-->
<svg xmlns="http://www.w3.org/2000/svg" viewBox="0 0 950 360" width="950" height="360">
  <style>
    .label { font-family: "Palatino Linotype", Palatino, Georgia, serif; fill: #333; }
    .title { font-size: 14px; letter-spacing: 0.5px; }
    .subtitle { font-size: 9px; fill: #666; font-style: italic; }
    .stage { font-size: 9px; }
    .num { font-size: 8px; fill: #555; }
    .small { font-size: 7px; fill: #777; }
    .endpoint { font-size: 10px; font-weight: bold; }
    .legend { font-size: 8px; fill: #555; }
    .on-band { font-size: 8px; fill: #e8e8e0; }
    .on-gold { font-size: 8px; fill: #4a4020; }
  </style>

  <rect width="950" height="360" fill="#faf8f3"/>

  <text x="30" y="20" class="label title">THE FLOW OF USERS THROUGH EXE.DEV</text>
  <text x="30" y="32" class="label subtitle">band width proportional to user volume</text>

  <!-- =====================================================================
       SSH PATH (main flow, top)
       ===================================================================== -->

  <!-- Enter via SSH: ~420 -->
  <path fill="#c8b090" d="M 30,55 L 100,55 L 100,125 L 30,125 Z"/>
  <text x="65" y="48" class="label stage" text-anchor="middle">ssh exe.dev</text>
  <text x="22" y="90" class="label num" text-anchor="end">420</text>

  <!-- Verify email: ~380 -->
  <path fill="#c8b090" d="M 100,57 L 190,60 L 190,123 L 100,123 Z"/>
  <text x="145" y="52" class="label stage" text-anchor="middle">verify email</text>

  <!-- Registered: ~360 -->
  <path fill="#c8b090" d="M 190,62 L 280,65 L 280,121 L 190,121 Z"/>
  <text x="235" y="56" class="label stage" text-anchor="middle">registered</text>

  <!-- ===== SPLIT at 2026-01-06 ===== -->

  <!-- Grandfathered (before cutoff): ~150 → ACTIVE -->
  <path fill="#4a7c59" d="
    M 280,65
    Q 330,58 390,54
    L 720,54
    L 720,78
    L 390,78
    Q 330,80 280,84
    Z"/>
  <text x="480" y="69" class="on-band" text-anchor="middle">GRANDFATHERED</text>
  <text x="580" y="69" class="small" fill="#c8c8c0">(before 2026-01-06)</text>

  <!-- Billing required (after cutoff): ~210 -->
  <path fill="#c8b090" d="M 280,86 L 370,89 L 370,119 L 280,119 Z"/>
  <text x="325" y="82" class="label num" text-anchor="middle">billing gate</text>
  <text x="325" y="92" class="small" text-anchor="middle">(after 2026-01-06)</text>

  <!-- From billing: checkout → PAYING (~65) -->
  <path fill="#4a7c59" d="
    M 370,89
    Q 440,86 520,84
    L 720,84
    L 720,102
    L 520,103
    Q 440,104 370,105
    Z"/>
  <text x="550" y="95" class="on-band" text-anchor="middle">PAYING</text>

  <!-- From billing: trial code → TRIAL (~35) -->
  <path fill="#c9a227" d="M 370,107 L 470,111 L 470,128 L 370,124 Z"/>
  <text x="420" y="120" class="on-gold" text-anchor="middle">TRIAL</text>

  <!-- Trial → some convert to paying (~15) -->
  <path fill="#4a7c59" opacity="0.7" d="
    M 470,111
    Q 540,108 620,106
    L 720,106
    L 720,114
    L 620,115
    Q 540,116 470,118
    Z"/>

  <!-- From billing: invite code → FREE (~15) -->
  <path fill="#4a7c59" opacity="0.85" d="
    M 370,126
    Q 450,130 550,132
    L 720,132
    L 720,145
    L 550,145
    Q 450,143 370,140
    Z"/>
  <text x="550" y="140" class="on-band" text-anchor="middle">FREE (invite)</text>

  <!-- =====================================================================
       WEB PATH (/auth → stripe checkout → paying)
       Separate smaller flow below
       ===================================================================== -->

  <path fill="#c8b090" d="M 30,160 L 100,160 L 100,182 L 30,182 Z"/>
  <text x="65" y="155" class="label stage" text-anchor="middle">/auth</text>
  <text x="22" y="172" class="label num" text-anchor="end">80</text>

  <!-- Web → stripe checkout → paying -->
  <path fill="#4a7c59" d="
    M 100,160
    Q 200,158 350,155
    Q 500,152 650,150
    L 720,150
    L 720,165
    L 650,166
    Q 500,168 350,170
    Q 200,172 100,175
    Z"/>
  <text x="400" y="158" class="small" fill="#c8c8c0">stripe checkout</text>
  <text x="680" y="160" class="on-band">PAYING</text>

  <!-- =====================================================================
       THE RETREAT (losses)
       ===================================================================== -->

  <!-- SSH losses flowing back -->
  <path fill="#3d3d3d" d="
    M 470,130
    Q 440,145 420,155
    Q 380,170 370,175
    Q 330,185 280,192
    Q 230,200 190,205
    Q 140,210 100,214
    Q 60,218 30,222
    L 30,212
    Q 60,208 100,203
    Q 140,197 190,191
    Q 230,184 280,176
    Q 330,168 370,158
    Q 380,152 420,140
    Q 435,134 470,128
    Z"/>

  <!-- Loss annotations -->
  <text x="460" y="155" class="small">20 expired</text>
  <text x="400" y="180" class="small">110 abandoned</text>
  <text x="310" y="198" class="small">20 blocked</text>
  <text x="210" y="212" class="small">40 unverified</text>
  <text x="100" y="224" class="small">40 bounced</text>

  <!-- Web path losses (smaller) -->
  <path fill="#3d3d3d" d="
    M 100,177
    Q 70,185 50,190
    L 50,198
    Q 70,193 100,186
    Z"/>
  <text x="75" y="210" class="small">30 web abandoned</text>

  <!-- =====================================================================
       ENDPOINTS (right side)
       ===================================================================== -->

  <line x1="735" y1="52" x2="735" y2="168" stroke="#4a7c59" stroke-width="1" opacity="0.2"/>

  <text x="745" y="65" class="label endpoint" fill="#3a6349">ACTIVE</text>
  <text x="745" y="78" class="label num">~295 users</text>
  <text x="745" y="90" class="label num" style="font-style:italic">59%</text>

  <text x="745" y="115" class="small">grandfathered: 150</text>
  <text x="745" y="127" class="small">paying: 95</text>
  <text x="745" y="139" class="small">trial: 35</text>
  <text x="745" y="151" class="small">free: 15</text>

  <!-- =====================================================================
       LEGEND
       ===================================================================== -->

  <g transform="translate(30, 290)">
    <rect x="0" y="0" width="16" height="5" fill="#c8b090"/>
    <text x="22" y="5" class="label legend">registration</text>

    <rect x="100" y="0" width="16" height="5" fill="#4a7c59"/>
    <text x="122" y="5" class="label legend">active</text>

    <rect x="170" y="0" width="16" height="5" fill="#c9a227"/>
    <text x="192" y="5" class="label legend">trial</text>

    <rect x="230" y="0" width="16" height="5" fill="#3d3d3d"/>
    <text x="252" y="5" class="label legend">lost</text>

    <text x="310" y="5" class="label legend">width ∝ volume</text>
  </g>

  <!-- Entry paths note -->
  <text x="30" y="260" class="small">SSH path: ssh exe.dev → verify email → registered → billing gate (if after 2026-01-06) → active</text>
  <text x="30" y="272" class="small">Web path: /auth → stripe checkout → paying</text>

</svg>
